<?xml version="1.0" encoding="utf-8"?>
<!-- Generator: Adobe Illustrator 23.1.0, SVG Export Plug-In . SVG Version: 6.00 Build 0)  -->
<svg version="1.1" xmlns="http://www.w3.org/2000/svg" xmlns:xlink="http://www.w3.org/1999/xlink" x="0px" y="0px"
	 viewBox="0 0 645.65 746.61" style="enable-background:new 0 0 645.65 746.61;" xml:space="preserve">
<style type="text/css">
	.st0{fill:#F4D242;}
	.st1{fill:#59595B;}
	.st2{fill:#808183;}
	.st3{fill:#FFFFFF;}
</style>
<g id="BG">
</g>
<g id="Objects">
	<g>
		<g>
			<g>
				<path class="st0" d="M520.48,349.53c0-109.3-88.6-197.9-197.9-197.9c-109.3,0-198.27,89.3-197.9,198.59
					c0.19,54.27,22.23,103.39,57.77,139.03c27.67,27.74,47.92,62.01,58.14,99.83l15.96,59.02h129.72l15.11-55.89
					c10.45-38.64,31.38-73.51,59.92-101.58C497.83,454.74,520.48,404.78,520.48,349.53z"/>
				<path class="st1" d="M352.54,717.23H289.3c-17.92,0-33.25-13.23-34.27-30.02l-5.34-64.81l143.25-0.92l-6.11,65.73
					C385.8,704,370.46,717.23,352.54,717.23z"/>
			</g>
			<path class="st2" d="M380.05,649.74c-40.01,1.71-80.17-0.34-120.18,1.43c-3.55,0.16-3.29,5.34,0.2,5.46
				c40.04,1.33,80.19-1.15,120.24,0.12C384.8,656.9,384.6,649.55,380.05,649.74z"/>
			<path class="st2" d="M380.05,667.12c-40.01,1.71-80.17-0.34-120.18,1.43c-3.55,0.16-3.29,5.34,0.2,5.46
				c40.04,1.33,80.19-1.15,120.24,0.12C384.8,674.28,384.6,666.93,380.05,667.12z"/>
		</g>
		<g>
			<path class="st0" d="M338.72,51.01c0,12.75-6.78,58.6-15.15,58.6c-8.36,0-15.15-45.85-15.15-58.6s6.78-23.09,15.15-23.09
				C331.93,27.91,338.72,38.25,338.72,51.01z"/>
			<path class="st0" d="M527.43,121.42c-9.67,8.31-40.03,43.33-34.58,49.68c5.45,6.34,44.64-18.39,54.32-26.7
				c9.67-8.31,13.09-20.19,7.64-26.54C549.36,111.51,537.1,113.11,527.43,121.42z"/>
			<path class="st0" d="M600.98,326.01c-12.65,1.61-58.99,0.66-60.04-7.64c-1.05-8.3,43.57-20.8,56.22-22.41
				c12.65-1.61,23.76,3.82,24.82,12.12C623.03,316.38,613.63,324.41,600.98,326.01z"/>
			<path class="st0" d="M137.03,106.19c10.04,7.86,41.95,41.47,36.8,48.05c-5.16,6.59-45.43-16.34-55.47-24.21
				c-10.04-7.86-14-19.58-8.84-26.16C114.67,97.29,126.99,98.33,137.03,106.19z"/>
			<path class="st0" d="M41.19,293.24c12.65,1.61,58.99,0.66,60.04-7.64c1.05-8.3-43.57-20.8-56.22-22.41
				c-12.65-1.61-23.76,3.82-24.82,12.12C19.14,283.6,28.54,291.63,41.19,293.24z"/>
		</g>
		<g>
			<path class="st3" d="M407.99,450.29c-6.36-4.65-11.3-10.74-14.9-17.59c7.18-8.86,10.34-20.78,11.65-31.85
				c0.8-6.77,1.03-13.56,1.14-20.37c0.11-6.57-0.76-12.14-6.32-16.23c-4.96-3.64-11.58-0.36-15.38,3.18
				c-4.39,4.08-6.52,10.76-8.21,16.33c-3.42,11.24-3.36,23.28-1.21,34.74c0.75,4,1.87,7.92,3.31,11.72
				c-2.81,2.2-5.99,3.94-9.51,5.06c-10.81,3.46-19.02-2.77-24.02-11.99c-0.82-1.51-1.6-3.12-2.34-4.79
				c0.85-2.28,1.66-4.56,2.42-6.81c3.68-10.95,5.71-22.42,6.63-33.92c0.76-9.53,1.03-20.92-8.13-26.56
				c-2.95-1.82-6.26-0.44-8.11,2.13c-13.4,18.59-12.65,43.24-5.37,64.32c-2.34,5.6-5.09,11.04-8.15,16.29
				c-3.36,5.79-9.77,14.71-17.55,13.58c-7.24-1.05-13.03-10.15-16.63-15.77c-2.64-4.12-4.71-8.52-6.34-13.1
				c0.92-2.42,1.78-4.87,2.56-7.35c3.09-9.74,4.82-19.88,5.63-30.05c0.67-8.49,0.95-20.41-8.34-24.48c-2.7-1.18-6.69-1.06-8.12,2.13
				c-8.15,18.14-9.71,38.04-4.57,57.26c0.17,0.65,0.38,1.3,0.57,1.95c-5.63,14.33-14.19,27.6-24.59,38.89
				c-4.67,5.07,2.72,12.54,7.58,7.58c9.27-9.46,16.98-20.21,23-31.88c1.79,3.36,3.8,6.59,6.01,9.65
				c6.06,8.4,13.66,16.26,24.57,16.85c10.19,0.55,18.47-8.02,23.99-15.46c2.65-3.57,4.97-7.47,7.03-11.52
				c4.99,7.95,12.19,14.26,21.99,15.63c9.02,1.26,17.76-1.54,25.15-6.49c4.33,7.37,9.93,14.01,16.45,19.47
				C407.32,467.06,415.82,456.02,407.99,450.29z M339.83,367.76c0.42,4.74-0.68,10.59-0.94,13.47c-0.48,5.25-1.4,10.45-2.61,15.59
				C335.04,386.7,335.87,376.34,339.83,367.76z M386.06,397.58c0.37-4.92,1.67-9.77,3.31-14.41c0.74-2.1,1.69-4.08,2.88-5.96
				c0.09-0.15,0.51-0.68,0.93-1.15c0.06,0.32,0.19,0.78,0.23,1.43c0.63,12.01-0.36,24.96-4.1,36.41c-0.46,1.42-1.02,2.8-1.65,4.13
				C386.09,411.31,385.55,404.35,386.06,397.58z"/>
			<path class="st3" d="M419.25,421.18c-21.04,64.22-43.19,128.13-66.99,191.39c-2.85,7.57,8.82,12.21,11.65,4.65
				c23.71-63.35,45.74-127.28,65.49-191.98C431.44,418.56,421.45,414.46,419.25,421.18z"/>
			<path class="st3" d="M227.86,417.12c16.79,65.47,32.48,131.25,46.43,197.38c1.67,7.92,14,5.56,12.32-2.35
				c-14.07-66.17-29.88-131.91-48.02-197.08C236.72,408.36,226.1,410.27,227.86,417.12z"/>
		</g>
	</g>
</g>
<g id="Text">
</g>
</svg>
