<?xml version="1.0" encoding="utf-8"?>
<!-- Generator: Adobe Illustrator 23.1.0, SVG Export Plug-In . SVG Version: 6.00 Build 0)  -->
<svg version="1.1" id="Ñëîé_1" xmlns="http://www.w3.org/2000/svg" xmlns:xlink="http://www.w3.org/1999/xlink" x="0px" y="0px"
	 viewBox="0 0 450 450" style="enable-background:new 0 0 450 450;" xml:space="preserve">
<g>
	<path d="M124.36,303.95c-1.53-1.63-2.99-3.11-4.36-4.66c-0.68-0.77-1.35-0.87-2.28-0.54c-2.89,1.05-5.79,2.04-8.7,3.04
		c-2.42,0.83-2.55,0.72-4.15-1.2c-2.57-3.07-2.57-3-0.34-6.7c1.14-1.9,2.37-3.75,3.65-5.57c0.85-1.21,0.96-2.28,0.04-3.51
		c-1.16-1.54-2.2-3.16-3.39-4.89c-2.41,0.52-4.76,1.09-7.13,1.53c-1.54,0.29-3.11,0.51-4.67,0.55c-2.12,0.05-2.41-1.93-3.24-3.27
		c-0.68-1.08-1.05-2.09-0.01-3.29c1.98-2.26,3.83-4.64,5.73-6.97c0.5-0.61,0.98-1.22,1.58-1.97c-0.94-1.97-1.91-3.95-2.82-5.96
		c-0.38-0.85-1.05-0.83-1.78-0.82c-3.08,0.06-6.16,0.13-9.24,0.16c-2.27,0.02-2.95-0.43-3.64-2.53c-1.26-3.86-1.66-3.06,1.34-5.83
		c1.78-1.65,3.74-3.1,5.67-4.58c1.72-1.32,1.82-1.51,1.22-3.59c-0.36-1.24-0.71-2.48-1.03-3.72c-0.35-1.32-1.09-2.02-2.54-2.16
		c-2.98-0.31-5.95-0.8-8.93-1.2c-2.08-0.28-2.13-0.31-2.58-2.45c-0.04-0.21-0.06-0.43-0.11-0.63c-0.85-3.44-0.78-3.62,2.31-5.48
		c2.63-1.59,5.26-3.18,8.09-4.88c-0.24-2.29-0.48-4.61-0.74-6.94c-0.11-1-0.97-1.13-1.71-1.36c-3-0.93-6.01-1.83-9.01-2.77
		c-1.86-0.58-1.88-0.63-2.01-2.5c-0.32-4.53-0.26-4.7,3.9-6.39c2.05-0.83,4.16-1.51,6.26-2.22c1.74-0.6,1.89-0.75,1.97-2.57
		c0.06-1.43,0.01-2.87,0.13-4.29c0.13-1.44-0.49-2.21-1.77-2.8c-2.73-1.25-5.4-2.63-8.08-3.98c-1.89-0.95-1.94-1.13-1.65-3.16
		c0.7-4.83,0.34-3.79,4.5-4.87c2.35-0.61,4.73-1.11,7.11-1.57c1.29-0.25,2.01-0.85,2.18-2.22c0.18-1.41,0.57-2.8,0.89-4.19
		c0.38-1.7,0.27-1.95-1.23-3.03c-2.56-1.83-5.12-3.67-7.66-5.53c-1.53-1.12-1.52-1.18-0.89-3.04c0.18-0.54,0.35-1.09,0.48-1.64
		c0.45-1.97,1.02-2.51,3.03-2.65c2.78-0.19,5.57-0.44,8.36-0.46c1.85-0.01,2.91-0.63,3.36-2.48c0.4-1.65,1.05-3.24,1.59-4.86
		c-1.11-1.21-2.21-2.43-3.34-3.61c-1.43-1.5-2.86-3.02-4.35-4.46c-0.97-0.94-1.17-1.9-0.54-3.08c0.27-0.5,0.47-1.04,0.68-1.58
		c0.66-1.67,1.84-2.49,3.68-2.29c2.98,0.32,5.98,0.53,8.94,0.99c1.33,0.21,1.99-0.19,2.56-1.28c0.69-1.33,1.43-2.65,2.27-3.89
		c0.76-1.12,0.7-2-0.13-3.08c-1.88-2.43-3.66-4.95-5.45-7.45c-1.25-1.74-1.24-1.76-0.02-3.58c0.4-0.6,0.8-1.19,1.24-1.75
		c0.94-1.18,2.13-1.66,3.61-1.21c2.53,0.76,5.06,1.51,7.58,2.3c2.52,0.79,2.52,0.81,4.16-1.17c1.09-1.32,2.16-2.66,3.31-4.06
		c-0.26-0.63-0.48-1.22-0.76-1.78c-1.28-2.56-2.55-5.13-3.88-7.66c-0.8-1.51-0.72-2.87,0.37-4.17c1.18-1.41,2.46-2.69,4.53-2.28
		c0.76,0.15,1.49,0.48,2.2,0.8c2.4,1.1,4.8,2.23,7.18,3.37c0.71,0.34,1.3,0.43,1.95-0.17c1.57-1.46,3.18-2.87,4.82-4.35
		c-0.17-0.67-0.31-1.29-0.49-1.9c-0.72-2.4-1.45-4.79-2.19-7.18c-1.43-4.58-0.57-3.95,2.72-6.5c1.17-0.91,2.62-0.46,3.81,0.38
		c2.23,1.56,4.44,3.14,6.64,4.74c1.8,1.3,1.79,1.31,3.73,0.07c1.2-0.77,2.39-1.59,3.63-2.29c1.04-0.58,1.31-1.33,1.1-2.49
		c-0.54-2.95-0.98-5.93-1.45-8.89c-0.36-2.29-0.2-2.59,1.91-3.72c0.44-0.24,0.9-0.44,1.35-0.66c1.35-0.67,2.65-0.59,3.8,0.4
		c1.51,1.31,3,2.66,4.46,4.03c0.83,0.78,1.61,1.63,2.39,2.47c0.68,0.73,1.45,0.85,2.34,0.47c1.58-0.67,3.13-1.41,4.74-1.99
		c1.08-0.38,1.37-1.04,1.38-2.1c0.03-3.01,0.15-6.01,0.22-9.02c0.02-0.71,0-1.43,0-2.39c1.67-0.64,3.29-1.34,4.97-1.86
		c1.03-0.32,1.73,0.47,2.33,1.2c1.59,1.94,3.14,3.91,4.74,5.84c2.85,3.44,1.48,2.91,5.79,2.01c0.56-0.12,1.1-0.34,1.67-0.39
		c1.93-0.17,2.61-1.37,2.85-3.13c0.37-2.69,0.86-5.37,1.31-8.05c0.39-2.29,0.65-2.53,3.01-2.83c0.21-0.03,0.43-0.04,0.64-0.07
		c3.21-0.48,3.47-0.39,5.08,2.52c1.49,2.69,2.88,5.44,4.45,8.43c2.23-0.18,4.56-0.36,6.89-0.57c0.96-0.08,1.23-0.86,1.5-1.61
		c0.99-2.76,1.97-5.52,2.98-8.27c0.38-1.04,0.51-2.38,1.97-2.53c1.78-0.18,3.61-0.35,5.18,0.76c0.42,0.29,0.65,0.92,0.84,1.45
		c0.95,2.62,1.87,5.25,2.77,7.89c0.75,2.18,0.81,2.25,3.16,2.42c1,0.07,2.02,0.09,2.99,0.3c1.98,0.44,3.15-0.19,4.03-2.11
		c1.22-2.66,2.86-5.12,4.21-7.72c0.59-1.14,1.36-1.61,2.56-1.35c0.97,0.21,1.93,0.5,2.88,0.79c1.24,0.37,1.81,1.27,2.01,2.52
		c0.44,2.75,0.94,5.5,1.42,8.25c0.38,2.22,0.4,2.23,2.59,2.75c1.86,0.45,3.72,0.92,5.64,1.4c1.34-1.88,2.54-3.65,3.84-5.35
		c1.05-1.36,2.22-2.61,3.35-3.91c0.68-0.78,1.49-1.1,2.49-0.62c0.06,0.03,0.13,0.05,0.2,0.08c4.81,1.76,4.06,1.38,4.26,5.44
		c0.13,2.57,0.27,5.15,0.32,7.72c0.02,1.04,0.25,1.73,1.35,2.11c1.55,0.54,3.04,1.24,4.54,1.92c0.84,0.38,1.45,0.21,2.11-0.41
		c2.25-2.11,4.57-4.13,6.81-6.24c1.13-1.06,2.25-1.69,3.84-0.97c1.75,0.8,3.38,1.69,3.67,3.82c0.11,0.84,0.05,1.72-0.1,2.56
		c-0.42,2.39-0.85,4.79-1.41,7.15c-0.28,1.2,0.08,1.89,1.07,2.48c1.48,0.87,2.96,1.75,4.35,2.75c0.94,0.68,1.64,0.5,2.5-0.09
		c2.53-1.75,5.14-3.39,7.63-5.19c1.38-0.99,2.49-0.92,3.86,0.05c3.11,2.21,3.38,2.79,2.2,6.37c-0.9,2.72-1.8,5.43-2.69,8.15
		c-0.04,0.13-0.02,0.28-0.04,0.58c1.56,1.42,3.22,2.89,4.83,4.4c0.65,0.61,1.23,0.49,1.94,0.15c2.59-1.21,5.21-2.36,7.81-3.54
		c3.01-1.36,6.24,0.13,6.9,3.36c0.18,0.87-0.19,1.97-0.61,2.82c-1.2,2.44-2.55,4.8-3.84,7.19c-0.89,1.65-0.89,1.66,0.36,3.17
		c0.96,1.16,1.96,2.28,2.86,3.49c0.76,1.02,1.63,1.2,2.81,0.86c2.95-0.85,5.92-1.64,8.89-2.41c1.77-0.46,2.34-0.2,3.41,1.31
		c0.21,0.29,0.37,0.61,0.6,0.89c1.37,1.7,1.31,3.37-0.02,5.06c-1.68,2.13-3.33,4.3-5.01,6.43c-1.15,1.45-1.17,1.44-0.28,2.97
		c0.79,1.36,1.62,2.71,2.35,4.1c0.53,1.02,1.2,1.44,2.4,1.27c2.55-0.35,5.12-0.55,7.68-0.8c0.85-0.08,1.72-0.1,2.57-0.18
		c1.76-0.17,2.09,1.3,2.59,2.4c0.56,1.23,1.71,2.48,0.48,3.95c-0.37,0.44-0.77,0.85-1.16,1.26c-2.33,2.42-4.66,4.84-7.12,7.4
		c0.79,2.06,1.55,4.12,2.37,6.17c0.37,0.93,1.22,1.11,2.12,1.16c2.93,0.15,5.86,0.32,8.79,0.46c2.43,0.11,2.49,0.14,3.29,2.49
		c0.07,0.2,0.18,0.39,0.25,0.59c0.87,2.39,0.53,3.69-1.56,5.19c-1.62,1.17-3.35,2.2-5,3.34c-4.04,2.79-3.35,1.88-2.48,6.37
		c0.21,1.12,0.48,2.23,0.76,3.48c2.29,0.58,4.57,1.15,6.84,1.72c1.52,0.38,3.04,0.8,4.57,1.14c1.06,0.24,1.59,0.89,1.73,1.92
		c0.08,0.57,0.17,1.13,0.21,1.71c0.11,2.01-0.39,3.55-2.54,4.4c-2.45,0.98-4.74,2.34-7.15,3.43c-1.27,0.57-1.92,1.29-1.76,2.77
		c0.18,1.63,0.15,3.29,0.19,4.94c0.02,0.9,0.41,1.38,1.3,1.69c2.7,0.94,5.39,1.91,8.03,3.01c2.87,1.19,4.04,4.64,2.49,7.29
		c-0.31,0.53-1.08,0.9-1.72,1.12c-3.04,1.06-6.1,2.03-9.15,3.04c-0.47,0.16-0.92,0.36-1.47,0.58c-0.28,2.06-0.53,4.12-0.85,6.16
		c-0.17,1.1,0.32,1.74,1.21,2.25c2.55,1.46,5.08,2.94,7.6,4.43c2.02,1.19,2.25,1.71,1.84,4.02c-0.08,0.42-0.25,0.83-0.31,1.25
		c-0.26,2.07-1.64,2.91-3.51,3.15c-2.69,0.35-5.4,0.64-8.1,0.96c-0.56,0.07-1.13,0.11-1.91,0.18c-0.64,2.25-1.32,4.49-1.92,6.76
		c-0.27,1.01,0.52,1.57,1.16,2.12c2.18,1.86,4.38,3.7,6.56,5.55c0.49,0.42,1.04,0.81,1.4,1.32c0.84,1.21-0.96,5.74-2.39,6.06
		c-0.55,0.12-1.14,0.09-1.71,0.09c-2.93-0.04-5.87-0.04-8.8-0.17c-1.32-0.06-2.13,0.31-2.62,1.61c-0.5,1.33-1.22,2.58-1.85,3.87
		c-0.84,1.7-0.8,1.92,0.5,3.4c1.94,2.2,3.89,4.4,5.81,6.62c1.36,1.58,1.37,2.04,0.35,3.81c-1.96,3.41-1.95,3.38-5.94,2.74
		c-3.03-0.49-6.06-0.92-9.26-1.4c-1.4,2.04-2.81,4.09-4.25,6.2c0.41,0.67,0.77,1.27,1.15,1.87c1.28,2.07,2.6,4.11,3.85,6.2
		c1.78,2.99,1.73,3.34-0.45,6.08c-1.35,1.69-2.41,2.02-4.52,1.29c-2.57-0.89-5.13-1.79-7.66-2.78c-1.05-0.41-1.83-0.41-2.67,0.47
		c-1.09,1.13-2.28,2.18-3.53,3.13c-1.21,0.92-1.23,1.9-0.68,3.17c1.07,2.5,2.07,5.02,3.08,7.55c1.08,2.73,1.05,2.82-1.08,4.81
		c-0.21,0.2-0.4,0.4-0.61,0.6c-1.48,1.42-2.16,1.55-3.99,0.57c-2.52-1.35-5.02-2.75-7.52-4.13c-0.63-0.34-1.26-0.68-2.03-1.1
		c-2.01,1.51-4.06,3.05-6.18,4.64c0.64,2.49,1.27,4.9,1.88,7.32c0.19,0.76,0.35,1.53,0.48,2.31c0.51,3.17-1.07,5.56-4.22,6.12
		c-0.64,0.12-1.52-0.3-2.1-0.73c-2.41-1.8-4.74-3.7-7.09-5.57c-1.77-1.41-1.76-1.41-3.73-0.33c-1.56,0.86-3.13,1.7-4.83,2.62
		c0.15,4.28,0.3,8.55,0.46,12.96c-1.2,0.59-2.31,1.2-3.47,1.71c-2.15,0.96-2.43,0.92-4.07-0.85c-1.85-1.99-3.65-4.04-5.45-6.08
		c-1.58-1.79-1.56-1.8-3.79-1.04c-1.35,0.46-2.69,0.98-4.07,1.33c-1.1,0.28-1.48,0.92-1.57,1.98c-0.27,3.07-0.6,6.13-0.9,9.19
		c-0.21,2.12-0.44,2.4-2.42,3c-0.27,0.08-0.56,0.12-0.83,0.2c-2.99,0.88-3.04,0.92-4.75-1.52c-1.92-2.75-3.73-5.57-5.75-8.6
		c-2.22,0.33-4.63,0.6-6.99,1.1c-0.48,0.1-0.96,0.98-1.13,1.59c-0.83,2.89-1.63,5.79-2.28,8.72c-0.41,1.84-1.44,2.69-3.25,2.77
		c-0.29,0.01-0.57,0.06-0.85,0.08c-2.66,0.19-2.83,0.11-3.94-2.28c-1.44-3.11-2.85-6.24-4.41-9.64c-2.21,0-4.63-0.1-7.03,0.07
		c-0.55,0.04-1.21,0.93-1.52,1.57c-1.3,2.71-2.48,5.47-3.71,8.21c-1.01,2.25-1.18,2.34-3.57,1.98c-0.35-0.05-0.7-0.13-1.06-0.17
		c-2.9-0.29-2.9-0.29-3.62-3.15c-0.66-2.64-1.35-5.26-1.95-7.91c-0.29-1.3-0.88-1.95-2.3-2.03c-1.56-0.09-3.11-0.46-4.65-0.77
		c-1.06-0.21-1.7,0.14-2.26,1.08c-1.51,2.52-3.06,5.01-4.71,7.43c-1.4,2.05-2.38,2.31-4.78,1.62c-0.34-0.1-0.68-0.24-1.02-0.32
		c-1.54-0.36-2.25-1.35-2.35-2.91c-0.17-2.57-0.34-5.15-0.64-7.7c-0.41-3.47,0.21-2.96-3.27-4.04c-1.02-0.32-2.05-0.65-3.02-1.09
		c-1.16-0.52-1.98-0.25-2.82,0.7c-2.03,2.31-4.2,4.51-6.22,6.83c-1.05,1.21-2.17,1.53-3.61,0.9c-0.52-0.23-1.06-0.44-1.59-0.64
		c-1.45-0.55-2.18-1.6-2.09-3.14c0.18-3,0.35-6,0.63-8.98c0.18-1.91,0.27-1.93-1.45-2.84c-1.33-0.7-2.69-1.34-3.99-2.08
		c-1.09-0.63-1.98-0.49-2.94,0.28c-2.34,1.88-4.79,3.64-7.1,5.57c-1.32,1.11-2.45,1.07-3.87,0.21c-3.28-1.99-3.38-1.95-2.67-5.69
		c0.46-2.45,1.11-4.87,1.77-7.28c0.52-1.89,0.57-1.93-0.91-3.07c-0.96-0.75-2-1.4-2.89-2.23c-1.45-1.34-2.8-1.25-4.42-0.22
		c-2.29,1.45-4.71,2.71-7.09,4.03c-2.08,1.16-2.22,1.13-3.91-0.42c-3.05-2.8-3.09-2.92-1.55-6.83c0.52-1.33,1.11-2.64,1.68-3.95
		C123.11,306.72,123.7,305.42,124.36,303.95z M97.36,203.01c-0.04,69.77,55.94,128.71,128.37,129.03
		c72.29,0.32,129.72-58.03,129.71-129.07c-0.01-70.85-57.04-128.98-128.85-129.07C154.12,73.8,97.27,132.54,97.36,203.01z"/>
	<path d="M70.88,385.43c-0.4,0.55-0.82,1.08-1.18,1.66c-2.28,3.64-4.54,7.29-6.81,10.93c-0.26,0.42-0.49,0.88-0.81,1.26
		c-0.68,0.82-1.25,0.83-1.94,0.03c-0.32-0.37-0.56-0.83-0.82-1.25c-2.23-3.58-4.46-7.17-6.7-10.74c-0.4-0.64-0.85-1.25-1.28-1.87
		c-0.15,0.04-0.31,0.07-0.46,0.11c-0.06,0.59-0.17,1.17-0.17,1.76c-0.01,4.44-0.01,8.88-0.01,13.31c0,0.5,0.03,1.01-0.03,1.5
		c-0.09,0.82-0.55,1.3-1.41,1.31c-2.43,0.01-4.87,0.01-7.3,0c-0.97,0-1.42-0.55-1.45-1.48c-0.01-0.43-0.01-0.86-0.01-1.29
		c0-10.45,0-20.9,0-31.35c0-0.43,0-0.86,0.01-1.29c0.02-0.93,0.44-1.5,1.42-1.51c2.36-0.01,4.72-0.03,7.08,0.01
		c1.15,0.02,1.7,0.91,2.27,1.75c2.78,4.08,5.57,8.15,8.36,12.22c0.39,0.56,0.84,1.08,1.44,1.86c0.61-0.78,1.05-1.31,1.44-1.87
		c2.71-3.95,5.46-7.88,8.09-11.89c1.01-1.55,2.2-2.28,4.07-2.12c1.63,0.14,3.29,0.01,4.94,0.03c1.84,0.03,2.03,0.25,2.08,2.14
		c0.01,0.36,0,0.72,0,1.07c0,10.16,0,20.33,0,30.49c0,0.57-0.01,1.15-0.01,1.72c-0.01,0.94-0.45,1.5-1.42,1.5
		c-2.43,0.01-4.87,0-7.3,0c-0.87,0-1.32-0.49-1.42-1.3c-0.06-0.49-0.04-1-0.04-1.5c0-4.29,0-8.59,0-12.88c0-0.69,0-1.39,0-2.08
		C71.31,385.58,71.09,385.51,70.88,385.43z"/>
	<path d="M150.09,382.43c0.67-0.88,1.11-1.41,1.5-1.97c2.71-3.95,5.46-7.88,8.08-11.89c1.02-1.56,2.22-2.25,4.08-2.11
		c1.78,0.13,3.58,0.05,5.36,0.02c1.07-0.01,1.61,0.44,1.59,1.53c-0.01,0.43,0.01,0.86,0.01,1.29c0,10.45,0,20.89,0,31.34
		c0,0.43-0.01,0.86-0.01,1.29c0.01,0.94-0.41,1.5-1.4,1.5c-2.43,0-4.87,0-7.3,0c-0.89,0-1.29-0.53-1.37-1.33
		c-0.06-0.57-0.06-1.14-0.06-1.71c0-4.22,0-8.44,0-12.67c0-0.69,0-1.37,0-2.2c-1.18,0.12-1.4,0.88-1.75,1.43
		c-2.2,3.51-4.38,7.04-6.57,10.57c-0.19,0.3-0.37,0.61-0.56,0.92c-1.28,2-1.85,2-3.13-0.04c-2.35-3.76-4.68-7.53-7.03-11.29
		c-0.36-0.57-0.77-1.11-1.16-1.66c-0.16,0.04-0.31,0.08-0.47,0.12c-0.06,0.59-0.16,1.18-0.16,1.77c-0.01,4.44-0.01,8.87-0.01,13.31
		c0,0.43,0,0.86-0.01,1.29c-0.03,0.93-0.46,1.49-1.43,1.5c-2.43,0.01-4.87,0-7.3,0c-0.88,0-1.31-0.49-1.4-1.3
		c-0.06-0.5-0.03-1-0.03-1.5c0-10.45,0-20.89,0-31.34c0-0.5-0.02-1.01,0.04-1.5c0.1-0.82,0.55-1.29,1.42-1.29
		c2.29,0.01,4.58,0,6.87,0c1.26,0,1.87,0.89,2.49,1.78c2.74,4.02,5.48,8.03,8.23,12.05C148.97,380.9,149.39,381.47,150.09,382.43z"
		/>
	<path d="M318.69,385.4c-0.39,0.53-0.83,1.04-1.18,1.6c-2.24,3.58-4.47,7.16-6.7,10.75c-0.15,0.24-0.3,0.49-0.45,0.73
		c-1.23,1.91-1.81,1.94-3,0.04c-2.36-3.76-4.68-7.54-7.03-11.3c-0.39-0.63-0.86-1.22-1.29-1.82c-0.16,0.05-0.32,0.1-0.48,0.15
		c-0.05,0.68-0.15,1.36-0.15,2.04c-0.01,4.3-0.01,8.59-0.01,12.89c0,0.5-0.01,1-0.02,1.5c-0.03,0.95-0.49,1.45-1.46,1.45
		c-2.36,0-4.72,0-7.09,0c-0.96,0-1.46-0.45-1.48-1.42c-0.01-0.43-0.01-0.86-0.01-1.29c0-10.52,0-21.05,0-31.57
		c0-0.36,0.01-0.72,0-1.07c-0.02-1.04,0.42-1.6,1.53-1.59c2.22,0.02,4.44,0.02,6.66,0c1.26-0.01,1.89,0.82,2.51,1.73
		c2.73,4.03,5.48,8.04,8.23,12.06c0.43,0.63,0.91,1.22,1.56,2.09c0.61-0.78,1.06-1.29,1.44-1.85c2.75-4.01,5.53-8.01,8.21-12.07
		c0.92-1.39,1.99-2.1,3.71-1.99c1.85,0.12,3.72,0,5.58,0.04c1.3,0.03,1.62,0.36,1.75,1.65c0.05,0.5,0.02,1,0.02,1.5
		c0,10.17,0,20.33,0,30.5c0,0.36,0.01,0.72,0,1.07c-0.07,1.93-0.33,2.19-2.3,2.21c-2,0.02-4.01,0.03-6.01-0.01
		c-1.61-0.03-1.85-0.26-1.86-1.9c-0.03-4.65-0.01-9.31-0.02-13.96c0-0.67-0.09-1.34-0.13-2
		C319.04,385.51,318.87,385.45,318.69,385.4z"/>
	<path d="M362.21,383.81c0.67,0.49,1.23,0.89,1.78,1.31c2.23,1.73,3.38,4.01,3.45,6.83c0.15,6.71-3.57,11.01-10.41,11.36
		c-5.99,0.31-12.01,0.12-18.02,0.1c-1.33,0-1.58-0.31-1.62-1.7c-0.05-1.5-0.01-3-0.01-4.51c0-9.23,0-18.45,0-27.68
		c0-0.57,0-1.14,0.02-1.72c0.03-0.85,0.46-1.32,1.33-1.36c0.36-0.01,0.71-0.02,1.07-0.02c4.79,0,9.58-0.08,14.37,0.04
		c1.9,0.05,3.86,0.32,5.67,0.88c4.09,1.26,7.13,4.97,6.29,10.82c-0.24,1.69-1.27,3-2.43,4.2
		C363.25,382.84,362.78,383.26,362.21,383.81z M351.54,394.03c0.5,0,1,0,1.5,0c0.29,0,0.57,0.01,0.85,0
		c1.61-0.08,2.77-1.04,2.82-2.33c0.06-1.24-1.08-2.67-2.49-2.78c-1.77-0.15-3.56-0.12-5.34-0.02c-0.44,0.02-1.18,0.57-1.21,0.92
		c-0.09,1.25,0.07,2.51,0.14,3.77c0.88,0.15,1.76,0.32,2.65,0.44C350.82,394.07,351.18,394.03,351.54,394.03z M350.99,380.36
		C350.99,380.36,350.99,380.36,350.99,380.36c0.71-0.01,1.43,0.03,2.14-0.02c1.43-0.09,2.29-0.96,2.3-2.27
		c0.01-1.25-0.89-2.13-2.37-2.2c-1.14-0.05-2.28-0.03-3.42-0.01c-1.9,0.03-2.1,0.23-2.14,2.06c-0.05,2.18,0.17,2.41,2.41,2.43
		C350.28,380.37,350.63,380.36,350.99,380.36z"/>
	<path d="M263.99,365.7c10.43,0.04,19.17,8.77,19.12,19.21c-0.05,10.52-8.41,19.19-19.29,19.25c-10.44,0.06-19.11-8.75-19.12-19.2
		C244.69,374.4,253.45,365.66,263.99,365.7z M272.94,385.12c0.08-5.11-4.09-9.59-8.97-9.63c-4.81-0.04-9.01,4.24-9.08,9.29
		c-0.08,5.14,4.08,9.61,8.95,9.64C268.62,394.45,272.86,390.12,272.94,385.12z"/>
	<path d="M371.12,385c-0.03-10.52,8.54-19.23,18.99-19.3c10.53-0.07,19.41,8.64,19.39,19.16c-0.02,10.41-8.25,19.29-19.25,19.27
		C378.72,404.11,371.07,394.62,371.12,385z M399.31,384.83c-0.04-5.02-4.22-9.33-9.04-9.34c-4.89-0.01-9.07,4.44-9.01,9.58
		c0.06,5.02,4.26,9.37,9.03,9.35C395.16,394.4,399.35,389.95,399.31,384.83z"/>
	<path d="M124.32,384.97c0.23,9.24-7.41,19.14-19.3,19.18c-10.49,0.03-19.02-8.73-19-19.26c0.01-10.61,8.71-19.26,19.29-19.2
		C115.76,365.77,124.35,374.47,124.32,384.97z M105.66,375.48c-5.69,0.07-9.71,4.68-9.44,10.13c0.19,3.75,2.81,7.21,6.34,8.37
		c3.37,1.1,7,0.03,9.4-2.94c2.52-3.11,3-6.6,1.25-10.23C111.6,377.44,108.77,375.73,105.66,375.48z"/>
	<path d="M213.32,385.04c0.35,8.77-7.04,19.08-19.13,19.09c-11.56,0.01-19.23-9.5-19.19-19.31c0.04-10.46,8.75-19.18,19.19-19.11
		C205.77,365.79,213.74,375.64,213.32,385.04z M185.21,384.97c0.01,5.09,4.09,9.4,8.91,9.45c4.85,0.04,9.15-4.43,9.13-9.5
		c-0.02-5.09-4.31-9.5-9.18-9.43C189.22,375.56,185.19,379.87,185.21,384.97z"/>
	<path d="M229.11,366.44c4.01,0,8.01-0.01,12.02,0c2.09,0.01,2.23,0.15,2.26,2.17c0.03,1.72,0.04,3.43,0,5.15
		c-0.04,1.81-0.31,2.06-2.17,2.1c-1.64,0.03-3.29,0-4.94,0.01c-2.27,0.02-2.36,0.11-2.38,2.48c-0.01,1.43,0,2.86,0,4.29
		c0,6.15,0.01,12.31-0.01,18.46c-0.01,2.21-0.12,2.32-2.29,2.34c-1.86,0.02-3.72,0.02-5.58,0c-2.01-0.02-2.18-0.17-2.18-2.24
		c-0.02-7.15-0.01-14.31-0.01-21.46c0-0.79,0.01-1.57-0.02-2.36c-0.03-1.04-0.55-1.53-1.63-1.51c-1.93,0.04-3.86,0.03-5.79,0
		c-1.87-0.03-2.21-0.39-2.25-2.3c-0.03-1.64-0.03-3.29,0-4.94c0.04-1.93,0.28-2.16,2.3-2.17
		C220.67,366.43,224.89,366.44,229.11,366.44z"/>
	<path d="M295.82,305.25c-0.44-0.63-0.82-1.14-1.15-1.68c-8.05-12.86-16.09-25.73-24.15-38.57c-0.48-0.77-1.12-1.49-1.81-2.08
		c-2.39-2.06-4.78-4.11-7.26-6.04c-1.99-1.54-3.42-3.45-4.39-5.72c-1.47-3.42-2.86-6.86-4.33-10.28c-1.67-3.89-3.49-7.69-6.27-10.95
		c-1.48-1.73-1.47-1.73-3.57-0.81c-3.81,1.66-7.67,3.13-11.87,3.45c-5.86,0.46-11.33-0.92-16.6-3.35c-2.19-1.01-2.22-0.98-3.74,0.79
		c-2.45,2.86-4.17,6.16-5.65,9.58c-1.48,3.41-2.88,6.85-4.3,10.29c-1.25,3.04-3.02,5.65-5.75,7.59c-5.27,3.73-9.16,8.58-12.49,14.16
		c-6.86,11.49-14.2,22.68-21.35,34c-0.34,0.53-0.73,1.03-1.09,1.53c-36.95-22.4-64.55-70.25-55.77-124.21
		c9.21-56.64,56.44-99.69,113.67-103.44c61.36-4.01,112.19,35.96,127.38,89.28C360.85,223.26,337.53,277.47,295.82,305.25z
		 M226.48,184.28c-0.7-2.43-1.35-4.47-1.86-6.54c-1.94-7.8-0.25-14.64,5.74-20.15c2.31-2.13,4.79-4.09,7.34-5.93
		c3.54-2.55,7.23-4.89,10.82-7.36c3.61-2.47,7.06-5.14,10.08-8.32c5.01-5.29,8.31-11.42,7.84-18.87
		c-0.62-10.04-4.83-18.5-12.55-24.98c-5.52-4.63-12.02-5.84-18.96-4.03c-4.88,1.27-9.05,3.93-12.46,7.64
		c-4.26,4.63-5.93,10.12-4.49,16.28c1.59,6.82,5.46,11.93,12.23,14.39c4.85,1.76,9.65,0.41,13.05-3.41
		c1.47-1.65,2.09-3.56,1.77-5.75c-0.29-2.01-1.67-3.67-3.29-4.02c0.37,0.6,0.81,1.18,1.11,1.82c0.96,2.02,0.46,4.19-1.25,5.61
		c-3.26,2.72-7.25,2.86-10.67,0.33c-3.14-2.33-4.98-5.52-5.59-9.33c-0.5-3.09,0.07-6.05,2.22-8.44c2.98-3.32,6.76-5.29,11.2-5.69
		c4.47-0.41,7.85,1.78,10.56,5.1c2.85,3.49,4.74,7.49,5.83,11.84c0.98,3.93,0.53,7.76-1.78,11.11c-1.61,2.34-3.42,4.63-5.5,6.55
		c-3.95,3.63-8.15,6.98-12.26,10.43c-4.39,3.69-8.61,7.55-11.82,12.38C217.37,164.53,218.87,175.21,226.48,184.28z M223.61,218.42
		c0.77,0.29,1.15,0.5,1.56,0.57c5.53,0.97,10.84,0.28,15.76-2.49c6.14-3.46,9.61-10.91,8.49-17.87c-0.49-3.1-1.79-5.86-3.35-8.53
		c-1.33-2.28-2.72-4.54-4.11-6.79c-4.91-7.95-2.98-16.69,2.42-22.81c3.25-3.68,7.33-6.1,11.91-7.74c0.73-0.26,1.44-0.61,2.43-1.03
		c-4.1-1.14-7.84-1.02-11.58-0.16c-12.24,2.83-20.52,15.55-18.27,27.91c0.84,4.62,2.92,8.63,5.54,12.43c1.5,2.18,3.05,4.32,4.5,6.54
		c1.47,2.25,1.85,4.71,1.4,7.39c-0.55,3.29-2.45,5.58-4.99,7.46C231.96,215.82,228.15,217.37,223.61,218.42z M216.61,145.37
		c-0.6,0.25-0.98,0.42-1.37,0.56c-1.8,0.67-2.61,0.45-3.49-0.93c-1.08-1.69-1.08-3.38-0.08-4.53c1.32-1.52,2.92-1.63,4.68-1.04
		c4.23,1.44,7.48,4.11,9.76,7.95c0.31,0.52,0.63,1.03,0.94,1.55c0.16,0,0.31-0.01,0.47-0.01c0.41-1.34,1.01-2.66,1.18-4.03
		c0.82-6.51-3.45-13.28-9.83-15.76c-6.96-2.71-13.95,0.37-16.64,7.34c-2.24,5.8,1.23,12.48,7.27,14
		C213.22,151.39,215.97,149.54,216.61,145.37z M219.93,182.73c-0.91,1.27-1.12,2.28-1.17,3.37c-0.1,2.37,0.75,4.48,1.73,6.56
		c0.77,1.61,1.65,3.17,2.31,4.83c1.03,2.59,0.33,4.59-1.97,6.09c-0.84,0.54-1.72,1.02-2.55,1.58c-5.82,3.85-5.97,11.96-0.17,16.4
		c0-0.84-0.02-1.59,0-2.34c0.05-1.63,0.05-3.28,0.21-4.9c0.16-1.62,1.1-2.74,2.6-3.41c1.3-0.58,2.62-1.14,3.86-1.84
		c2.55-1.43,4.2-3.58,4.91-6.45c0.76-3.05,0.16-5.87-1.61-8.35c-1.32-1.85-2.91-3.52-4.46-5.19
		C222,187.33,220.49,185.55,219.93,182.73z"/>
	<path d="M251.61,134.69c7.27-7.31,9.09-16,7.76-25.66c3.74,4.15,4.59,9,3.46,14.23C261.53,129.28,256.98,133.94,251.61,134.69z"/>
	<path d="M237.69,215.16c5.34-5.43,6.67-11.64,5.6-18.56c2.51,0.99,3.36,6.41,2.92,9.23C245.5,210.5,242.28,214.21,237.69,215.16z"
		/>
	<path d="M205.92,138.66c-0.65-4.91,6.5-9.73,10.76-6.66C211.93,132.42,208.56,134.81,205.92,138.66z"/>
	<path d="M225.44,205.18c1.97-2.51,2.58-5.35,2.29-8.83c1.64,1.7,1.62,3.43,1.25,5.1C228.56,203.28,227.56,204.78,225.44,205.18z"/>
</g>
</svg>
