<?xml version="1.0" encoding="utf-8"?>
<!-- Generator: Adobe Illustrator 23.1.0, SVG Export Plug-In . SVG Version: 6.00 Build 0)  -->
<svg version="1.1" id="Capa_1" xmlns="http://www.w3.org/2000/svg" xmlns:xlink="http://www.w3.org/1999/xlink" x="0px" y="0px"
	 viewBox="0 0 350 43" style="enable-background:new 0 0 350 43;" xml:space="preserve">
<style type="text/css">
	.st0{fill:none;stroke:#145267;stroke-width:5;stroke-miterlimit:10;}
	.st1{fill:#145267;}
	.st2{clip-path:url(#SVGID_2_);}
	.st3{opacity:0.15;}
	.st4{opacity:0.15;fill:#145267;enable-background:new    ;}
	.st5{opacity:0.2;fill:#145267;enable-background:new    ;}
	.st6{opacity:0.45;fill:#145267;enable-background:new    ;}
	.st7{opacity:0.49;}
	.st8{clip-path:url(#SVGID_4_);}
	.st9{opacity:0.45;}
</style>
<g>
	<line class="st0" x1="138.72" y1="21.5" x2="0" y2="21.5"/>
	<line class="st0" x1="211.28" y1="21.5" x2="350" y2="21.5"/>
	<g>
		<path class="st1" d="M158.4,21.51c0-5.89,0.02-11.79-0.01-17.68c-0.02-2.78,2.83-4.37,5.16-3.2c3.86,1.94,7.74,3.84,11.62,5.76
			c5.42,2.68,10.83,5.36,16.25,8.04c2.68,1.33,5.37,2.65,8.05,4c2.09,1.05,2.58,3.68,0.99,5.41c-0.31,0.33-0.72,0.6-1.13,0.81
			c-4.26,2.13-8.53,4.24-12.79,6.35c-5,2.48-9.99,4.96-14.99,7.44c-2.67,1.32-5.33,2.65-8,3.96c-2.03,1-4.48-0.06-5.02-2.19
			c-0.08-0.32-0.11-0.66-0.11-0.98C158.4,33.31,158.4,27.41,158.4,21.51L158.4,21.51z"/>
		<path class="st1" d="M166.34,21.5c0-3.12,0.01-6.25-0.01-9.37c-0.01-1.48,1.5-2.32,2.73-1.7c2.05,1.03,4.1,2.04,6.16,3.05
			c2.87,1.42,5.74,2.84,8.61,4.26c1.42,0.7,2.85,1.4,4.27,2.12c1.11,0.56,1.37,1.95,0.53,2.87c-0.16,0.18-0.38,0.32-0.6,0.43
			c-2.26,1.13-4.52,2.25-6.78,3.37c-2.65,1.31-5.3,2.63-7.95,3.94c-1.41,0.7-2.83,1.4-4.24,2.1c-1.08,0.53-2.37-0.03-2.66-1.16
			c-0.04-0.17-0.06-0.35-0.06-0.52C166.34,27.76,166.34,24.63,166.34,21.5L166.34,21.5z"/>
		<g>
			<g>
				<defs>
					<path id="SVGID_1_" d="M158.4,21.51c0-5.89,0.02-11.79-0.01-17.68c-0.02-2.78,2.83-4.37,5.16-3.2
						c3.86,1.94,7.74,3.84,11.62,5.76c5.42,2.68,10.83,5.36,16.25,8.04c2.68,1.33,5.37,2.65,8.05,4c2.09,1.05,2.58,3.68,0.99,5.41
						c-0.31,0.33-0.72,0.6-1.13,0.81c-4.26,2.13-8.53,4.24-12.79,6.35c-5,2.48-9.99,4.96-14.99,7.44c-2.67,1.32-5.33,2.65-8,3.96
						c-2.03,1-4.48-0.06-5.02-2.19c-0.08-0.32-0.11-0.66-0.11-0.98C158.4,33.31,158.4,27.41,158.4,21.51L158.4,21.51z"/>
				</defs>
				<use xlink:href="#SVGID_1_"  style="overflow:visible;fill:#145267;"/>
				<clipPath id="SVGID_2_">
					<use xlink:href="#SVGID_1_"  style="overflow:visible;"/>
				</clipPath>
				<g class="st2">
					<g>
						<g>
							<path class="st1" d="M174.43,30.45c2.36,0.76,4.87,1,7.32,0.73l2.29-3.34c-2.15-1.4-6.81-2.19-9.25-2.94"/>
						</g>
						<g class="st3">
							<path class="st1" d="M168.02,57.08c-0.25-2.06-0.58-4.1-0.89-6.15c-0.16-1.04-0.37-2.1-0.51-3.15
								c-0.07-0.47-0.21-1.02-0.09-1.48c0.12-0.5,0.39-0.94,0.64-1.39c0.26-0.47,0.52-0.93,0.79-1.39c0.17-0.3,0.05-0.68-0.27-0.81
								c-0.1-0.04-0.2-0.08-0.31-0.13c-0.38-0.16-0.85-0.34-1.36-0.52c-0.64-1.65-1.01-3.11-1.89-4.62
								c-0.04-0.08-0.18-0.26-0.24-0.63c-0.02-0.11,0.06-0.25-0.02-0.33c-0.04-0.05-0.12-0.07-0.14-0.13
								c-0.02-0.05,0-0.11,0.02-0.16c0.39-0.93,0.73-2.53,0.91-3.52c0,0,0.47-2.44-0.99-4.72c-1.1-1.72-2.68-1.07-2.68-1.07
								c-0.88,0.7-1.31,1.4-1.73,3.82c-0.13,0.75-0.24,4.36-0.15,5.12c0.19,1.72,1.36,4,3.23,5.88c-0.55,0.85-1.79,2.99-1.45,4.62
								c0.39,1.85,2.11,9.08,2.49,10.67c0.05,0.2,0.2,0.36,0.39,0.42c0.39,0.12,1.12,0.31,1.98,0.38c0.56,0.05,1.18,0.05,1.8-0.05
								C167.84,57.67,168.06,57.39,168.02,57.08z"/>
						</g>
						<g>
							<path class="st4" d="M175.24,48.05c-0.3,1.08-0.57,2.17-0.87,3.25c-0.56,2.04-1.12,4.07-1.7,6.1
								c-0.1,0.34-0.44,0.56-0.79,0.49l-2.35-0.43l-0.56-0.1c-0.36-0.07-0.61-0.4-0.57-0.76c0.17-1.54,0.33-3.09,0.49-4.63
								c0.12-1.19,0.25-2.38,0.36-3.58c0.06-0.64,0.15-1.27,0.23-1.91c0.07-0.57,0.05-1.2-0.24-1.71c-0.08-0.14-0.16-0.27-0.25-0.4
								c-0.2-0.3-0.43-0.59-0.67-0.87l6.38-2.08c0.22,0.6,0.43,1.2,0.62,1.8c0.14,0.45,0.28,0.9,0.4,1.36
								C176.06,45.69,175.54,47,175.24,48.05z"/>
							<g>
								<path class="st1" d="M173.4,63.28c-0.26,0.49-0.87,1.05-2.24,0.69c-1.4-0.37-1.8-2-2.03-2.87s-0.42-1.78-0.44-2.01
									c-0.02-0.17-0.02-0.49,0.29-0.7c0.04-0.03,0.08-0.05,0.13-0.08l0,0c0.11-0.05,0.25-0.09,0.43-0.11
									c0.08,0.02,0.16,0.05,0.24,0.1c0.3,0.19,0.63,0.61,0.96,1.13c0.49,0.78,0.98,1.79,1.35,2.64c0.15,0.33,0.28,0.64,0.39,0.9
									l0,0c0.17,0.42,0.94-0.16,1.09-0.28c0.01-0.01,0.02-0.02,0.02-0.02S173.57,62.97,173.4,63.28z"/>
								<path class="st5" d="M173.4,63.28c-0.26,0.49-0.87,1.05-2.24,0.69c-1.4-0.37-1.8-2-2.03-2.87s-0.42-1.78-0.44-2.01
									c-0.02-0.17-0.02-0.49,0.29-0.7c-0.13,0.12-0.07,0.35-0.05,0.54c0.02,0.23,0.44,1.63,0.45,1.67l0,0
									c0.04,0.03,0.57,0.48,1.19,0.97c0.81,0.65,1.76,1.39,1.92,1.39l0,0c0.17,0.42,0.94-0.16,1.09-0.28
									c0.01-0.01,0.02-0.02,0.02-0.02S173.57,62.97,173.4,63.28z"/>
								<path class="st1" d="M172.17,59.46c-0.18-0.42-0.34-0.84-0.37-1.01c-0.06-0.35,0.1-1.27,0.36-2.01
									c-0.62-0.07-1.24-0.13-1.85-0.18c-0.03,0.38-0.07,0.69-0.11,0.91c-0.13,0.69-0.28,0.97-0.4,1.14
									c-0.12,0.18-0.2,0.22-0.15,0.49c0.04,0.19,0.16,0.62,0.33,1.12c-0.11,0.1-0.22,0.21-0.33,0.35
									c0.06,0.29,0.09,0.56,0.09,0.56s0.3,0.17,0.69,0.38c0.59,0.33,1.4,0.76,1.68,0.88l0,0c0.06,0.02,0.09,0.03,0.1,0.03
									c0.05-0.07,0.42-1.58,0.42-1.58S172.39,59.99,172.17,59.46z"/>
								<path class="st1" d="M170.3,56.25c-0.14-0.01-0.29-0.02-0.43-0.03c-0.01,0.66-0.07,1.29-0.19,1.75
									c-0.04,0.08-0.08,0.15-0.13,0.22c0.08,0.02,0.16,0.05,0.24,0.1c0.12-0.16,0.27-0.45,0.4-1.14
									C170.23,56.95,170.26,56.63,170.3,56.25z"/>
								<path class="st1" d="M170.3,56.25c-0.14-0.01-0.29-0.02-0.43-0.03c-0.01,0.66-0.07,1.29-0.19,1.75
									c-0.04,0.08-0.08,0.15-0.13,0.22c0.08,0.02,0.16,0.05,0.24,0.1c0.12-0.16,0.27-0.45,0.4-1.14
									C170.23,56.95,170.26,56.63,170.3,56.25z"/>
								<path class="st1" d="M169.97,59.9c-0.11,0.1-0.22,0.21-0.33,0.35l0,0l0,0c-0.05-0.28-0.13-0.58-0.21-0.7
									c-0.34-0.72-0.11-0.98,0.12-1.35c0.08,0.02,0.16,0.05,0.24,0.1c-0.12,0.18-0.2,0.22-0.15,0.49
									C169.68,58.97,169.81,59.41,169.97,59.9z"/>
								<path class="st1" d="M169.97,59.9c-0.11,0.1-0.22,0.21-0.33,0.35l0,0l0,0c-0.05-0.28-0.13-0.58-0.21-0.7
									c-0.34-0.72-0.11-0.98,0.12-1.35c0.08,0.02,0.16,0.05,0.24,0.1c-0.12,0.18-0.2,0.22-0.15,0.49
									C169.68,58.97,169.81,59.41,169.97,59.9z"/>
								<path class="st1" d="M173.47,63L173.47,63c-0.22,0.49-0.65,0.88-1.04,0.88c-1.83,0.21-2.56-1.75-3.05-3.28
									c0.08-0.13,0.17-0.24,0.26-0.35c0.11-0.13,0.22-0.25,0.33-0.35c0.85-0.76,1.74-0.61,2.2-0.44c0.2,0.07,0.32,0.15,0.32,0.15
									s0.84,1.6,1.08,2.42C173.67,62.35,173.61,62.69,173.47,63z"/>
								<path class="st6" d="M173.4,63.28c-0.26,0.49-0.87,1.05-2.24,0.69c-1.4-0.37-1.8-2-2.03-2.87s-0.42-1.78-0.44-2.01
									c-0.02-0.17-0.02-0.49,0.29-0.7c0.04-0.03,0.08-0.05,0.13-0.08l0,0c0.11-0.05,0.25-0.09,0.43-0.11
									c-0.23,0.37-0.46,0.63-0.12,1.35c0.08,0.12,0.15,0.42,0.21,0.7l0,0l0,0c0.11-0.13,0.22-0.25,0.33-0.35
									c0.14,0.42,0.3,0.89,0.45,1.29c0.05,0.14,0.1,0.27,0.15,0.39c0.09,0.22,0.17,0.39,0.23,0.5c0.31,0.54,1.66,1.82,2.67,0.92
									l0,0C173.45,63.1,173.43,63.19,173.4,63.28z"/>
							</g>
							<path class="st1" d="M175.83,48.05c-0.3,1.08-0.57,2.17-0.87,3.25c-0.28,1.04-0.57,2.08-0.86,3.11
								c-0.05,0.19-0.11,0.39-0.16,0.58c-0.08,0.29-0.17,0.59-0.25,0.89c-0.09,0.32-0.18,0.64-0.27,0.96c0,0.01,0,0.02-0.01,0.03
								c-0.15,0.48-0.56,0.69-1.03,0.82c-0.34,0.09-0.65,0.07-0.97,0.02c-0.13-0.02-0.27-0.05-0.41-0.07
								c-0.13-0.02-0.27-0.05-0.4-0.07l-0.47-0.09c-0.01,0-0.01,0-0.02,0c-0.3-0.06-0.43-0.16-0.68-0.42
								c-0.09-0.09-0.18-0.19-0.25-0.3c-0.35-0.59-0.03-1.66,0.04-2.29c0.09-0.83,0.18-1.65,0.26-2.48
								c0.12-1.19,0.25-2.38,0.36-3.58c0.06-0.64,0.15-1.27,0.23-1.91c0.07-0.57,0.05-1.2-0.24-1.71c-0.08-0.14-0.16-0.27-0.25-0.4
								c-0.2-0.3-0.43-0.59-0.67-0.87l6.38-2.08c0.22,0.6,0.43,1.2,0.62,1.8c0.14,0.45,0.28,0.9,0.4,1.36
								C176.64,45.69,176.12,47,175.83,48.05z"/>
							<path class="st1" d="M175.83,48.05c-0.3,1.08-0.57,2.17-0.87,3.25c-0.28,1.04-0.57,2.08-0.86,3.11
								c-0.14,0.49-0.27,0.98-0.41,1.47c-0.09,0.33-0.18,0.66-0.28,0.98c-0.15,0.48-0.56,0.69-1.03,0.82
								c-0.34,0.09-0.65,0.07-0.97,0.02l-0.81-0.15l-0.47-0.09c3.49,0.53,4.01-9.93,3.9-12.35c-0.1-2.42-4.89-1.33-5.12-1.61
								l6.38-2.08c0.22,0.6,0.43,1.2,0.62,1.8c0.14,0.45,0.28,0.9,0.4,1.36C176.64,45.69,176.12,47,175.83,48.05z"/>
						</g>
						<g>
							<path class="st4" d="M168.72,57.84c-0.61,0.1-1.23,0.1-1.8,0.05c-0.86-0.07-1.58-0.26-1.98-0.38
								c-0.2-0.06-0.35-0.22-0.39-0.42c-0.38-1.6-2.1-8.82-2.49-10.67c-0.36-1.71,1.03-3.99,1.53-4.74c0.11-0.17,0.3-0.26,0.5-0.26
								c1.3,0.04,3.3,0.79,4.45,1.26c0.11,0.05,0.22,0.09,0.31,0.13c0.32,0.14,0.44,0.52,0.27,0.81c-0.27,0.46-0.53,0.93-0.79,1.39
								c-0.25,0.45-0.51,0.89-0.64,1.39c-0.12,0.47,0.03,1.01,0.09,1.48c0.15,1.05,0.35,2.11,0.51,3.15
								c0.32,2.05,0.64,4.09,0.89,6.15C169.24,57.51,169.03,57.79,168.72,57.84z"/>
							<g>
								<path class="st1" d="M163.74,63.43c0.27,0.49,0.89,1.04,2.26,0.64c1.39-0.4,1.76-2.04,1.97-2.91s0.38-1.79,0.4-2.02
									c0.01-0.17,0.01-0.49-0.31-0.7c-0.04-0.03-0.08-0.05-0.13-0.07l0,0c-0.11-0.05-0.26-0.09-0.44-0.11
									c-0.08,0.02-0.16,0.05-0.24,0.11c-0.3,0.19-0.62,0.62-0.94,1.15c-0.47,0.79-0.94,1.81-1.3,2.67
									c-0.14,0.34-0.26,0.65-0.37,0.91l0,0c-0.16,0.43-0.95-0.14-1.09-0.26c-0.01-0.01-0.02-0.02-0.02-0.02
									S163.56,63.11,163.74,63.43z"/>
								<path class="st5" d="M163.74,63.43c0.27,0.49,0.89,1.04,2.26,0.64c1.39-0.4,1.76-2.04,1.97-2.91s0.38-1.79,0.4-2.02
									c0.01-0.17,0.01-0.49-0.31-0.7c0.13,0.12,0.08,0.34,0.06,0.54c-0.02,0.23-0.4,1.64-0.41,1.68l0,0
									c-0.04,0.03-0.56,0.49-1.17,1c-0.79,0.67-1.73,1.42-1.89,1.43l0,0c-0.16,0.43-0.95-0.14-1.09-0.26
									c-0.01-0.01-0.02-0.02-0.02-0.02S163.56,63.11,163.74,63.43z"/>
								<path class="st1" d="M164.9,59.58c0.17-0.42,0.33-0.85,0.35-1.02c0.05-0.35-0.12-1.26-0.4-2c0.62-0.09,1.23-0.16,1.85-0.22
									c0.04,0.38,0.08,0.69,0.13,0.9c0.14,0.69,0.3,0.97,0.42,1.13c0.13,0.17,0.2,0.22,0.16,0.48c-0.03,0.19-0.15,0.63-0.3,1.12
									c0.11,0.1,0.23,0.21,0.34,0.34c-0.05,0.29-0.08,0.56-0.08,0.56s-0.3,0.18-0.69,0.4c-0.59,0.34-1.38,0.79-1.66,0.91l0,0
									c-0.06,0.02-0.09,0.04-0.1,0.03c-0.05-0.07-0.45-1.58-0.45-1.58S164.69,60.11,164.9,59.58z"/>
								<path class="st1" d="M166.7,56.34c0.14-0.01,0.29-0.03,0.43-0.04c0.02,0.65,0.09,1.28,0.22,1.75
									c0.04,0.08,0.08,0.15,0.13,0.22c-0.08,0.02-0.16,0.05-0.24,0.11c-0.12-0.16-0.28-0.44-0.42-1.13
									C166.79,57.03,166.75,56.71,166.7,56.34z"/>
								<path class="st1" d="M166.7,56.34c0.14-0.01,0.29-0.03,0.43-0.04c0.02,0.65,0.09,1.28,0.22,1.75
									c0.04,0.08,0.08,0.15,0.13,0.22c-0.08,0.02-0.16,0.05-0.24,0.11c-0.12-0.16-0.28-0.44-0.42-1.13
									C166.79,57.03,166.75,56.71,166.7,56.34z"/>
								<path class="st1" d="M167.11,59.97c0.11,0.1,0.23,0.21,0.34,0.34l0,0l0,0c0.05-0.28,0.11-0.58,0.19-0.7
									c0.33-0.73,0.09-0.98-0.15-1.35c-0.08,0.02-0.16,0.05-0.24,0.11c0.13,0.17,0.2,0.22,0.16,0.48
									C167.38,59.04,167.26,59.48,167.11,59.97z"/>
								<path class="st1" d="M167.11,59.97c0.11,0.1,0.23,0.21,0.34,0.34l0,0l0,0c0.05-0.28,0.11-0.58,0.19-0.7
									c0.33-0.73,0.09-0.98-0.15-1.35c-0.08,0.02-0.16,0.05-0.24,0.11c0.13,0.17,0.2,0.22,0.16,0.48
									C167.38,59.04,167.26,59.48,167.11,59.97z"/>
								<path class="st1" d="M163.67,63.14C163.67,63.15,163.67,63.15,163.67,63.14c0.23,0.49,0.67,0.86,1.06,0.86
									c1.83,0.17,2.53-1.8,2.98-3.34c-0.09-0.13-0.17-0.24-0.26-0.34c-0.11-0.13-0.22-0.25-0.34-0.34
									c-0.87-0.75-1.75-0.57-2.21-0.39c-0.2,0.08-0.32,0.16-0.32,0.16s-0.81,1.62-1.03,2.44
									C163.46,62.49,163.52,62.84,163.67,63.14z"/>
								<path class="st6" d="M163.74,63.43c0.27,0.49,0.89,1.04,2.26,0.64c1.39-0.4,1.76-2.04,1.97-2.91s0.38-1.79,0.4-2.02
									c0.01-0.17,0.01-0.49-0.31-0.7c-0.04-0.03-0.08-0.05-0.13-0.07l0,0c-0.11-0.05-0.26-0.09-0.44-0.11
									c0.24,0.37,0.47,0.62,0.15,1.35c-0.08,0.12-0.14,0.42-0.19,0.7l0,0l0,0c-0.11-0.13-0.22-0.25-0.34-0.34
									c-0.13,0.42-0.28,0.89-0.43,1.3c-0.05,0.14-0.1,0.27-0.14,0.39c-0.09,0.22-0.16,0.4-0.22,0.51
									c-0.29,0.55-1.62,1.86-2.65,0.98l0,0C163.69,63.24,163.71,63.34,163.74,63.43z"/>
							</g>
							<path class="st1" d="M167.96,57.36c-0.23,0.16-0.49,0.29-0.76,0.36c-0.85,0.23-1.95-0.08-2.77-0.32
								c-0.2-0.06-0.35-0.22-0.39-0.42c-0.38-1.6-2.1-8.82-2.49-10.67c-0.36-1.71,1.03-3.99,1.53-4.74c0.11-0.17,0.3-0.26,0.5-0.26
								c1.3,0.04,3.3,0.79,4.45,1.26c0.11,0.05,0.22,0.09,0.31,0.13c0.32,0.14,0.44,0.52,0.27,0.81c-0.27,0.46-0.53,0.93-0.79,1.39
								c-0.25,0.45-0.51,0.89-0.64,1.39c-0.12,0.47,0.03,1.01,0.09,1.48c0.15,1.05,0.35,2.11,0.51,3.15
								c0.16,1.05,0.33,2.1,0.48,3.14c0.08,0.54,0.16,1.07,0.23,1.61c0.06,0.41,0.16,0.88-0.09,1.26c-0.1,0.15-0.25,0.27-0.4,0.38
								C167.99,57.34,167.98,57.35,167.96,57.36z"/>
							<path class="st1" d="M167.97,44.52c-0.02,0.33-3.19-2.03-4.45-0.72c-1.25,1.31,0.24,12.93,3.26,13.99
								c-0.11,0.02-0.3,0-0.37-0.01c-0.86-0.07-1.58-0.26-1.98-0.38c-0.2-0.06-0.35-0.22-0.39-0.42c-0.38-1.6-2.1-8.82-2.49-10.67
								c-0.36-1.71,1.03-3.99,1.53-4.74c0.11-0.17,0.3-0.26,0.5-0.26c1.3,0.04,3.3,0.79,4.45,1.26
								C168.03,43.16,168.01,43.81,167.97,44.52z"/>
						</g>
						<ellipse class="st1" cx="169.23" cy="42.21" rx="6.09" ry="1.55"/>
						<g class="st3">
							<path class="st1" d="M175.4,34.36c0.11-0.35,0.59-2.91,0.51-4.07c-0.12-1.66-0.37-2.24-0.78-3.85
								c-0.16-0.61-0.57-2.18-1.1-2.6c-0.26-0.21-0.68-0.19-0.99-0.22c-0.15-0.01-0.3-0.03-0.45-0.04c0.14-0.12,0.26-0.25,0.36-0.38
								c0.43-0.6,0.49-1.41,0.4-2.14c-0.09-0.68-0.36-1.28-0.56-1.93c-0.17-0.56-0.27-1.05-0.3-1.63c-0.04-0.66-0.29-1.29-0.69-1.82
								c-1.23-1.61-3.5-1.95-5.38-1.25c-1.94,0.72-3.09,2.32-3.15,4.38c-0.02,0.82,0.13,1.65,0.48,2.39
								c-0.11,0.18-0.17,0.39-0.18,0.61c-0.02,0.42,0.16,0.83,0.43,1.14c0.16,0.18,0.36,0.33,0.59,0.35
								c0.11,0.01,0.23-0.02,0.33-0.06c0.04,0.07,0.09,0.14,0.13,0.21c0.1,0.15,0.21,0.29,0.34,0.42c-0.07,0.03-0.15,0.06-0.22,0.09
								c-0.94,0.38-1.87,0.8-2.77,1.26c-0.06,0.03-0.12,0.06-0.15,0.11c-0.01,0.02-0.02,0.04-0.02,0.05
								c-0.42,0.28-0.94,0.74-0.94,0.74c-0.88,0.7-1.31,1.4-1.73,3.82c-0.13,0.75-0.24,4.36-0.15,5.12
								c0.27,2.43,2.49,5.99,5.91,7.93l0.78-0.15l0.58-0.64c-0.08-0.19-0.16-0.37-0.23-0.55c0.86,0.08,1.72,0.1,2.58,0.14
								c1.86,0.08,3.82-0.31,5.61-0.79c0.25-0.07,0.56-0.28,0.43-0.5c-0.06-0.09-0.18-0.14-0.19-0.25c-0.01-0.11,0.1-0.18,0.15-0.27
								C175.13,39.77,175.21,34.93,175.4,34.36z"/>
						</g>
						<g>
							<path class="st1" d="M176.24,27.46c-0.23-1.07-0.41-2.07-1.2-2.82l-1.35-0.26c0.32,0.19,0.57,0.58,0.75,0.92
								c1.14,2.07,1.43,4.23,1.52,6.22c0.21-0.56,0.34-0.98,0.37-1.32C176.44,29.11,176.47,28.53,176.24,27.46z"/>
						</g>
						<g>
							<g>
								<path class="st1" d="M171.96,24.28c0.47,0.03,0.94,0.05,1.41,0.1c0.31,0.03,0.73,0.02,0.99,0.22c0.52,0.42,0.94,2,1.1,2.6
									c0.41,1.61,0.65,2.19,0.78,3.85c0.09,1.16-0.39,3.72-0.51,4.07c-0.18,0.57-0.27,5.41-0.37,5.6
									c-0.05,0.09-0.16,0.17-0.15,0.27c0.01,0.11,0.14,0.16,0.19,0.25c0.13,0.22-0.18,0.44-0.43,0.5
									c-1.79,0.48-3.75,0.87-5.61,0.79c-1-0.04-2.01-0.06-3.01-0.19c-0.65-0.08-1.3-0.18-1.94-0.29c-0.63-0.11-1.2-0.11-1.27-0.82
									c-0.29-3.22-0.26-6.44-0.06-9.67c0.05-0.82,0.12-1.64,0.02-2.45c-0.12-0.97-0.48-1.9-0.55-2.88c0-0.06-0.01-0.12,0.02-0.17
									s0.09-0.09,0.15-0.11c0.9-0.46,1.82-0.89,2.77-1.26c0.38-0.15,0.78-0.3,1.19-0.32"/>
							</g>
							<g>
								<path class="st1" d="M173.54,32.66c-1.87,2.72-4.25,5-6.96,6.66c1.43-0.23,2.75-0.99,3.85-2.01
									c1.1-1.02,1.99-2.29,2.75-3.64"/>
							</g>
							<g>
								<path class="st1" d="M174.3,41.48c-2.04,0.33-4.11,0.49-6.17,0.47c-0.13,0-0.27,0-0.39-0.07c-0.12-0.06-0.21-0.2-0.16-0.33
									c0.04-0.12,0.18-0.18,0.3-0.22c1.5-0.56,2.78-1.58,4.04-2.57c0.55-0.43,1.11-0.9,1.37-1.54c-1.6,1.09-3.32,2.01-5.12,2.73
									c-0.57,0.23-1.31,0.41-1.74-0.02c-0.2-0.2-0.28-0.49-0.35-0.76c-0.09-0.4-0.15-0.82-0.02-1.2c0.09-0.28,0.28-0.51,0.46-0.74
									c0.4-0.5,0.79-1,1.19-1.5c0.18-0.23,0.37-0.47,0.43-0.76c-0.64,0.52-1.32,0.98-2.05,1.37c-0.18,0.09-0.6,0.39-0.78,0.17
									c-0.06-0.07-0.08-0.16-0.09-0.25c-0.05-0.5,0.16-0.98,0.34-1.46c0.36-0.96,0.57-1.97,0.63-2.99
									c0.03-0.57,0.02-1.16-0.14-1.7c-0.16-0.55-0.48-1.07-0.96-1.38c-0.07-0.05-0.16-0.09-0.25-0.07
									c-0.14,0.04-0.16,0.23-0.15,0.37c0.06,1.93-0.5,3.81-1.08,5.65c-0.11,0.36-0.26,0.69-0.43,1.02
									c-0.16,0.31-0.16,0.71-0.2,1.04c-0.1,0.8-0.15,1.6-0.16,2.4c0,0.57,0.01,1.14,0.06,1.71c0.02,0.23-0.03,0.62,0.09,0.82
									c0.09,0.17,0.32,0.2,0.5,0.24c0.84,0.2,2.07,0.37,2.93,0.48c1,0.12,2.01,0.14,3.01,0.18c1.64,0.07,3.36-0.23,4.98-0.62
									c0.06-0.04,0.13-0.07,0.19-0.11c0.07-0.04,0.15-0.1,0.16-0.19C174.72,41.5,174.47,41.46,174.3,41.48z"/>
							</g>
						</g>
						<g>
							<g>
								<path class="st1" d="M167.23,22.93c-0.17,0.39-0.33,0.78-0.5,1.17c-0.02,0.04-0.03,0.08-0.02,0.12
									c0.01,0.03,0.03,0.06,0.06,0.08c0.21,0.22,0.42,0.44,0.65,0.63c0.67,0.52,2.59,1.32,3.43,1.24s0.58-1.03,1.25-1.54
									c-0.07-0.8-0.32-1.59-0.74-2.27"/>
							</g>
							<g>
								<path class="st1" d="M167.18,23.05c-0.06,0.17-0.12,0.34-0.18,0.5c0.24,0.27,0.57,0.49,0.89,0.55
									c0.27,0.05,0.55,0.01,0.82,0c0.49-0.01,0.98,0.07,1.45,0.24c0.14,0.05,0.28,0.11,0.42,0.14c0.47,0.09,0.97-0.16,1.41-0.35
									c-0.05-0.34-0.1-0.65-0.19-0.98"/>
							</g>
						</g>
						<g>
							<path class="st1" d="M169.23,25.45c0.28-0.23,0.14-0.64,1.04-0.59c0.11,0.57,0.31,1.02,0.64,1.23
								c0.45-0.01,0.29-1.02,0.2-1.3c0.01-0.04,0.23-0.13,0.26-0.15c0.14-0.06,0.14-0.24,0.28-0.3c0.04-0.02-0.08,0.34-0.04,0.39
								c0.13,0.14,0.19,0.34,0.17,0.54c-0.01,0.15-0.08,0.29-0.14,0.42c-0.05,0.1-0.1,0.2-0.15,0.29c-0.05,0.1-0.1,0.19-0.19,0.26
								c-0.12,0.1-0.29,0.11-0.45,0.1c-0.51-0.05-0.95-0.37-1.43-0.54c-0.04-0.01-0.09-0.05-0.08-0.09"/>
						</g>
						<g>
							<path class="st1" d="M166.92,23.92c0.12,0.18,0.28,0.33,0.46,0.46c1.02,0.8,3.62,1.5,3.66,1.49c0.39-0.27,0.82-1.21,1-1.85
								c0.13,0.06,0.28,0.15,0.29,0.3c0,0.05-0.01,0.09-0.02,0.14c-0.09,0.32-0.37,1.59-1.08,2.14c-2.65-0.19-4.66-2.17-4.61-2.49"
								/>
						</g>
						<g>
							<path class="st1" d="M166.85,23.32c0.14,0.27,0.37,0.47,0.61,0.65c0.74,0.55,1.91,0.73,2.82,0.89
								c-0.16-0.02-0.67,0.25-0.79,0.37c-0.59,0.59-0.72,1.08-0.98,1.67c-0.11-0.03-0.2-0.07-0.3-0.12
								c-0.96-0.51-1.71-1.57-2.25-2.32C166.17,24.11,166.58,23.38,166.85,23.32"/>
						</g>
						<g>
							<path class="st1" d="M171.94,23.48c-0.24,0.57-0.44,0.96-0.82,1.32c0.86-0.28,0.96,1.19,1.07,1.49
								c0.19-0.34,0.44-1.18,0.33-2.01c-0.19-0.3-0.4-0.61-0.54-0.72"/>
						</g>
						<g>
							<g>
								<path class="st1" d="M171.91,15.04c0.46,0,0.9,0.35,1,0.81c0.17-0.16,0.43-0.22,0.66-0.16c0.23,0.06,0.42,0.22,0.54,0.43
									c0.28,0.46,0.15,1.12-0.27,1.45c0.24,0.07,0.41,0.34,0.37,0.59c-0.04,0.25-0.28,0.46-0.53,0.45
									c0.08,0.17,0.05,0.39-0.06,0.54c-0.11,0.15-0.31,0.23-0.49,0.2c-0.16-0.02-0.29-0.12-0.42-0.21
									c-0.42-0.33-0.8-0.74-1.02-1.24s-0.27-1.08-0.07-1.59"/>
							</g>
							<g>
								<path class="st1" d="M174.26,16.81c-0.01,0.06-0.2,0.15-0.25,0.19c-0.11,0.11-0.19,0.26-0.28,0.38
									c-0.01,0.02-0.03,0.04-0.04,0.07c-0.02,0.06,0.03,0.12,0.07,0.16c0.05,0.04,0.1,0.07,0.13,0.13
									c0.02,0.03,0.02,0.07,0.02,0.11s-0.01,0.08-0.04,0.09c-0.04,0.02-0.09-0.02-0.12-0.06c-0.07-0.09-0.13-0.18-0.2-0.28
									c-0.01,0.07-0.03,0.14-0.04,0.2c0.03-0.13,0.01-0.27-0.05-0.38c-0.05-0.09-0.15,0.06-0.14,0.12
									c-0.04-0.21-0.09-0.41-0.13-0.62c-0.03-0.2-0.05-0.38-0.12-0.57c-0.11-0.27-0.33-0.52-0.62-0.56l-0.08,0.52
									c-0.16,0.28-0.32,0.57-0.39,0.89c-0.07,0.3-0.05,0.61,0.01,0.91c0.03,0.17,0.09,0.33,0.15,0.49
									c0.17,0.2,0.37,0.39,0.58,0.55c0.12,0.1,0.26,0.19,0.42,0.21c0.18,0.03,0.38-0.05,0.49-0.2c0.11-0.15,0.14-0.37,0.06-0.54
									c0.25,0.01,0.49-0.2,0.53-0.45s-0.13-0.52-0.37-0.59C174.08,17.39,174.22,17.11,174.26,16.81z"/>
							</g>
						</g>
						<g>
							<path class="st1" d="M173.14,18.76c0.08-0.18,0.32-0.25,0.49-0.17c0.18,0.07,0.3,0.25,0.37,0.44
								c0.15,0.42,0.05,0.93-0.26,1.26c-0.1,0.11-0.23,0.2-0.37,0.19c-0.15-0.01-0.29-0.14-0.31-0.29"/>
						</g>
						<g>
							<path class="st1" d="M173.46,22.51c-0.27,0.37-0.71,0.7-1.34,0.89c-0.42,0.12-0.47,0.37-1.1,0.52
								c-0.42,0.1-0.86,0.16-1.28,0.06c-0.43-0.1-1.08-0.06-1.52-0.06c-0.59,0-1.5-0.14-1.99-0.47c-0.28-0.19-0.49-0.43-0.66-0.69
								c-0.33-0.5-0.54-1.08-0.9-1.57c-0.64-0.87-0.91-1.98-0.88-3.06c0.06-2.06,1.2-3.66,3.15-4.38c1.87-0.7,4.15-0.36,5.38,1.25
								c0.4,0.52,0.64,1.15,0.69,1.82c0.04,0.58,0.14,1.08,0.3,1.63c0.2,0.65,0.46,1.25,0.56,1.93
								C173.95,21.1,173.89,21.91,173.46,22.51z"/>
						</g>
						<g>
							<g>
								<path class="st1" d="M169.05,20.45c0,0.2-0.01,0.41-0.05,0.58c-0.01,0.05-0.03,0.1-0.04,0.15c0,0.01-0.02,0.07-0.01,0.04
									c0.01-0.03-0.02,0.04-0.02,0.04c-0.02,0.04-0.04,0.08-0.07,0.12c-0.01,0.02-0.02,0.03-0.03,0.05
									c-0.01,0.01-0.05,0.07-0.01,0.02c-0.02,0.03-0.05,0.06-0.07,0.09c0.02-0.03,0.02-0.02,0,0c-0.03,0.03-0.06,0.07-0.09,0.1
									c-0.06,0.07-0.13,0.13-0.2,0.19c-0.15,0.12-0.3,0.27-0.39,0.44c-0.1,0.2,0.06,0.39,0.27,0.36c0.22-0.03,0.44-0.18,0.61-0.33
									c0.16-0.14,0.32-0.31,0.43-0.49c0.25-0.44,0.27-0.93,0.13-1.41C169.42,20.14,169.06,20.19,169.05,20.45L169.05,20.45z"/>
							</g>
						</g>
						<g>
							<g>
								<path class="st1" d="M171.74,21.01c0.14,0.13,0.27,0.27,0.39,0.42c-0.02-0.02-0.03-0.04-0.05-0.06
									c0.04,0.05,0.09,0.11,0.13,0.16c0.03,0.04,0.06,0.08,0.09,0.11s0.07,0.06,0.1,0.09c0.05,0.04,0.1,0.08,0.16,0.09
									c0.02,0,0.04,0.01,0.06,0.01c0.05,0.01,0.11,0.01,0.15-0.02s0.08-0.07,0.09-0.12c0-0.02,0.01-0.03,0.01-0.05
									c0.01-0.09,0.02-0.15-0.03-0.24c-0.02-0.04-0.05-0.09-0.07-0.13c-0.04-0.06-0.09-0.11-0.13-0.16
									c-0.03-0.04-0.07-0.07-0.11-0.11c-0.17-0.14-0.34-0.26-0.53-0.36c-0.1-0.05-0.22-0.03-0.29,0.06
									C171.66,20.8,171.66,20.94,171.74,21.01L171.74,21.01z"/>
							</g>
						</g>
						<g>
							<path class="st1" d="M164.75,15.7c-0.22-0.37-0.48-0.14-0.65,0c-0.21,0.18-0.35,0.43-0.4,0.7c-0.07-0.14-0.25-0.2-0.4-0.16
								c-0.15,0.03-0.28,0.14-0.38,0.26c-0.28,0.31-0.46,0.72-0.5,1.14c-0.03,0.29,0.05,0.64,0.32,0.74
								c0.04,0.01,0.08,0.03,0.08,0.07c0,0.02-0.01,0.03-0.03,0.05c-0.1,0.13-0.11,0.31-0.1,0.47c0.01,0.33,0.04,0.68,0.21,0.96
								c0.17,0.28,0.51,0.48,0.82,0.38c-0.02,0.16,0.05,0.32,0.16,0.44c0.11,0.11,0.26,0.19,0.4,0.25c0.27,0.11,0.59,0.17,0.83,0
								c0.09-0.07,0.16-0.16,0.21-0.27c0.13-0.25,0.18-0.55,0.13-0.83c0.2,0.13,0.48,0.03,0.62-0.16s0.19-0.44,0.21-0.68
								c0.03-0.36-0.01-0.79-0.3-0.99c-0.04-0.02-0.08-0.05-0.08-0.09c0-0.03,0.02-0.06,0.04-0.08c0.21-0.28,0.36-0.66,0.2-0.97
								c-0.13-0.26-0.47-0.38-0.73-0.26c0.11-0.23,0.12-0.52-0.02-0.73S165.01,15.46,164.75,15.7"/>
						</g>
						<g>
							<path class="st1" d="M165.99,18.06c-0.04-0.02-0.08-0.05-0.08-0.09c0-0.03,0.02-0.06,0.04-0.08
								c0.05-0.06,0.09-0.13,0.13-0.21c-0.05,0.03-0.1,0.07-0.14,0.11c-0.13,0.1-0.29,0.17-0.45,0.2c0.12,0.19,0.2,0.42,0.23,0.65
								c0.02,0.16,0.02,0.33-0.05,0.48s-0.19,0.27-0.35,0.29c-0.03,0-0.06,0-0.09,0c-0.01-0.11-0.03-0.22-0.06-0.33
								c-0.03-0.12-0.06-0.23-0.09-0.34c-0.2,0.25-0.33,0.55-0.38,0.86c-0.01,0.09-0.02,0.19-0.05,0.28
								c-0.02,0.02-0.05,0.03-0.07,0.05c-0.12-0.12-0.16-0.32-0.16-0.5c0-0.2,0.04-0.4,0-0.6c0-0.01-0.01-0.03-0.02-0.03
								c-0.02-0.01-0.04,0-0.06,0.01c-0.21,0.16-0.27,0.44-0.42,0.65c-0.01,0.02-0.03,0.04-0.05,0.05
								c-0.03,0.01-0.06-0.01-0.08-0.04s-0.02-0.06-0.02-0.09c-0.01-0.16-0.02-0.31-0.03-0.47c-0.15,0.18-0.25,0.4-0.3,0.63
								c-0.03-0.02-0.05-0.05-0.07-0.08c-0.03-0.06-0.04-0.14-0.05-0.21c-0.02-0.32-0.02-0.65,0.03-0.97
								c0.06-0.32,0.18-0.63,0.39-0.87c0.03-0.04,0.07-0.09,0.05-0.13c-0.19,0.1-0.35,0.26-0.49,0.43c-0.2,0.06-0.42,0.06-0.59-0.05
								c-0.11-0.07-0.18-0.17-0.24-0.28c-0.02,0.1-0.04,0.2-0.05,0.3c-0.03,0.29,0.05,0.64,0.32,0.74c0.04,0.01,0.08,0.03,0.08,0.07
								c0,0.02-0.01,0.03-0.03,0.05c-0.1,0.13-0.11,0.31-0.1,0.47c0.01,0.33,0.04,0.68,0.21,0.96c0.17,0.28,0.51,0.48,0.82,0.38
								c-0.02,0.16,0.05,0.32,0.16,0.44c0.11,0.11,0.26,0.19,0.4,0.25c0.27,0.11,0.59,0.17,0.83,0c0.09-0.07,0.27-0.19,0.32-0.29
								c0.13-0.25,0.16-0.37,0.12-0.65c0.2,0.13,0.39-0.13,0.53-0.31s0.19-0.44,0.21-0.68C166.33,18.69,166.29,18.26,165.99,18.06z"
								/>
						</g>
						<g class="st7">
							<path class="st1" d="M169.32,19.46c-0.09,0.11-0.14,0.24-0.16,0.37c-0.01,0.06,0,0.13,0.04,0.16s0.1,0.02,0.14-0.01
								s0.06-0.08,0.08-0.13c0.03-0.08,0.05-0.18,0.04-0.27c0-0.03-0.01-0.06-0.02-0.08c-0.02-0.03-0.07-0.04-0.1-0.06"/>
						</g>
						<g class="st7">
							<path class="st1" d="M171.17,19.21c0.11,0.08,0.19,0.2,0.24,0.33c0.02,0.06,0.03,0.12,0,0.17c-0.03,0.04-0.09,0.04-0.14,0.02
								s-0.08-0.06-0.11-0.1c-0.05-0.07-0.09-0.16-0.1-0.25c0-0.03-0.01-0.06,0-0.08c0.02-0.04,0.06-0.05,0.08-0.08"/>
						</g>
						<g>
							<g>
								<g>
									<path class="st1" d="M169.71,19.79c-0.01-0.1-0.01-0.2-0.05-0.29c-0.05-0.15-0.15-0.26-0.3-0.32
										c-0.14-0.05-0.31-0.04-0.46-0.03c-0.36,0.03-0.72,0.08-1.07,0.16c-0.18,0.04-0.35,0.11-0.48,0.25
										c-0.1,0.11-0.16,0.25-0.16,0.39c0,0.15,0.06,0.3,0.14,0.43c0.13,0.24,0.35,0.46,0.62,0.53c0.27,0.07,0.54,0.01,0.8-0.03
										c0.3-0.05,0.63-0.1,0.82-0.37C169.72,20.31,169.74,20.03,169.71,19.79c-0.02-0.15-0.12-0.28-0.28-0.28
										c-0.14,0-0.3,0.13-0.28,0.28c0.01,0.08,0.01,0.15,0.01,0.23c0,0.02-0.01,0.07,0,0.01c0,0.02-0.01,0.03-0.01,0.05
										c0,0.02-0.04,0.12-0.02,0.07c-0.01,0.01-0.02,0.04-0.03,0.05c-0.01,0.03,0.04-0.03,0,0.01s0,0,0,0
										c-0.02,0.01-0.04,0.02-0.06,0.03c-0.05,0.02,0.06-0.02-0.03,0.01c-0.02,0.01-0.04,0.01-0.06,0.02
										c-0.06,0.02-0.11,0.03-0.17,0.04c-0.09,0.02-0.18,0.03-0.27,0.04c-0.03,0-0.05,0.01-0.08,0.01c0.01,0,0.04,0-0.02,0
										c-0.06,0.01-0.12,0.01-0.17,0.01c-0.15,0-0.25-0.05-0.33-0.17c-0.03-0.04-0.05-0.08-0.07-0.12
										c-0.01-0.02-0.02-0.04-0.03-0.07c0-0.01-0.03-0.07-0.01-0.03c0-0.01-0.02-0.06-0.02-0.06c0.01,0,0,0.05,0,0.05
										s0.01-0.08,0.01-0.04c-0.01,0.02,0,0.02,0.01-0.01c-0.02,0.02-0.02,0.02-0.01,0.01c0.01-0.02,0.03-0.03,0.05-0.04
										c-0.04,0.03-0.01,0.01,0,0c0,0,0.07-0.03,0.03-0.02c-0.03,0.01,0,0,0.01,0c0.05-0.01,0.09-0.03,0.14-0.04
										c0.13-0.03,0.25-0.05,0.38-0.07c0.07-0.01,0.14-0.02,0.21-0.03c0.02,0,0.03,0,0.05-0.01c-0.06,0.01-0.01,0,0.01,0
										c0.04-0.01,0.08-0.01,0.12-0.01c0.13-0.01,0.26-0.03,0.39-0.02c0.01,0,0.02,0,0.03,0c0.06,0-0.08-0.02-0.02,0h0.01
										c0.03,0.01,0.03,0.01,0,0c-0.01-0.01-0.06-0.07-0.03-0.03c-0.01-0.01-0.02-0.06-0.01-0.01c0,0.02,0.01,0.04,0.01,0.06
										c-0.02-0.07,0-0.03,0-0.01s0,0.04,0.01,0.07c0.02,0.15,0.12,0.28,0.28,0.28C169.57,20.07,169.73,19.94,169.71,19.79z"/>
								</g>
							</g>
							<g>
								<g>
									<path class="st1" d="M169.29,19.62c0.17,0.03,0.29-0.07,0.43-0.15c0.03-0.02,0.06-0.03,0.09-0.04
										c0.02-0.01,0.04-0.02,0.05-0.03c0.05-0.02-0.04,0.01,0.02-0.01c0.08-0.03,0.17-0.06,0.25-0.07
										c0.1-0.02,0.15-0.03,0.25-0.03c0.04,0,0.07,0,0.1,0.01c0.06,0.01-0.01,0,0.02,0c0.02,0,0.04,0.01,0.06,0.01
										c0.09,0.02,0.17,0.04,0.26,0.06c0.04,0.01,0.08,0.03,0.13,0.04c0.01,0,0.14,0.02,0.06,0.01c0.03,0,0.07,0.01,0.1,0.01
										c0.22,0.01,0.3-0.26,0.17-0.41c-0.13-0.16-0.38-0.19-0.57-0.23c-0.23-0.04-0.44-0.04-0.67,0.02
										c-0.18,0.05-0.37,0.12-0.52,0.23c-0.12,0.09-0.31,0.22-0.33,0.38C169.16,19.5,169.2,19.6,169.29,19.62L169.29,19.62z"/>
								</g>
							</g>
							<g>
								<g>
									<path class="st1" d="M171.37,19.56c-0.01-0.04-0.02-0.07-0.03-0.11c0-0.02-0.01-0.03-0.01-0.05c-0.02-0.06-0.01,0.03,0,0
										c0-0.01-0.01-0.04,0-0.05c0,0.01,0,0.02,0,0.03c-0.02,0.04-0.02,0.04-0.01,0.01c-0.02,0.02-0.06,0.05-0.01,0.03
										c-0.05,0.03-0.04,0.02,0.01,0c0.02-0.01,0.05-0.01,0.07-0.02c0.06-0.02,0.12-0.03,0.18-0.04s0.13-0.02,0.19-0.03
										c0.03-0.01,0.07-0.01,0.1-0.01c0.07-0.01-0.05,0.01,0,0c0.02,0,0.05-0.01,0.07-0.01c0.12-0.01,0.23-0.03,0.35-0.03
										c0.02,0,0.04,0,0.06,0c0.01,0,0.02,0,0.03,0c0.03,0-0.04,0-0.04,0s0.04,0.01,0.05,0.01c0.05,0.01-0.03-0.02-0.01,0
										c0.01,0.01,0.03,0.01,0.04,0.02c0.03,0.02,0.03,0.03,0,0c0.01,0.01,0.03,0.03,0.04,0.04c-0.06-0.06,0.01,0,0,0
										c0.01,0,0.03,0.07,0,0c0.01,0.02,0.01,0.04,0.02,0.05c0.02,0.03,0-0.06,0,0.01c0,0.03,0,0.05,0,0.08
										c0,0.05,0,0.11-0.01,0.16c0,0.02,0,0.04-0.01,0.05c0.01-0.06-0.01,0.02-0.01,0.03c-0.01,0.04-0.02,0.08-0.03,0.12
										c0.01-0.05,0.01-0.01,0,0c-0.01,0.02-0.02,0.04-0.03,0.06c0.03-0.04,0.01-0.01,0,0s-0.02,0.02-0.03,0.03
										c0.03-0.02,0.03-0.02,0-0.01c-0.01,0.01-0.03,0.01-0.04,0.02c-0.06,0.03,0.05-0.01-0.02,0.01
										c-0.04,0.01-0.07,0.02-0.11,0.03s-0.07,0.01-0.11,0.02c0.07-0.01,0,0-0.01,0c-0.02,0-0.04,0.01-0.06,0.01
										c-0.04,0-0.07,0.01-0.11,0.01c-0.02,0-0.02,0,0,0c-0.02,0-0.04,0-0.06,0.01c-0.06,0.01-0.12,0.01-0.17,0
										c0.04,0-0.01,0-0.02,0c-0.02,0-0.04-0.01-0.06-0.02c0.04,0.02,0.04,0.02,0.01,0.01c-0.01-0.01-0.02-0.01-0.03-0.02
										c0.06,0.04-0.01-0.01-0.02-0.02c-0.01-0.01-0.02-0.02-0.03-0.03c0.04,0.05-0.01-0.03-0.02-0.04
										c-0.02-0.04-0.05-0.08-0.07-0.13c0,0.01,0.02,0.05,0,0c-0.01-0.03-0.02-0.05-0.03-0.08
										C171.39,19.66,171.38,19.61,171.37,19.56c-0.04-0.14-0.2-0.24-0.34-0.19s-0.23,0.19-0.19,0.34
										c0.06,0.22,0.15,0.44,0.3,0.62c0.17,0.21,0.44,0.27,0.7,0.24c0.07-0.01,0.14-0.02,0.21-0.03c-0.05,0.01-0.02,0,0.01,0
										c0.05-0.01,0.09-0.01,0.14-0.02c0.1-0.01,0.19-0.03,0.28-0.07c0.25-0.1,0.42-0.29,0.48-0.55c0.06-0.24,0.08-0.53-0.02-0.76
										c-0.08-0.2-0.28-0.36-0.49-0.4c-0.14-0.03-0.28-0.01-0.42,0c-0.19,0.02-0.37,0.04-0.55,0.08
										c-0.16,0.03-0.33,0.06-0.47,0.14s-0.22,0.23-0.23,0.39c-0.01,0.12,0.03,0.24,0.06,0.35c0.04,0.14,0.2,0.24,0.34,0.19
										C171.32,19.85,171.41,19.71,171.37,19.56z"/>
								</g>
							</g>
							<g>
								<g>
									<path class="st1" d="M165.73,20.17c0.1,0,0.2-0.01,0.3-0.02c-0.03-0.01-0.05-0.01-0.08-0.02c0.12,0.05,0.26,0.01,0.39,0
										c0.14-0.01,0.27,0,0.41,0c0.13,0.01,0.26,0.01,0.39,0c0.11-0.01,0.23,0,0.34,0c0.22,0,0.42-0.19,0.41-0.41
										s-0.18-0.42-0.41-0.41c-0.14,0-0.29,0.03-0.42,0.06c-0.16,0.03-0.3,0.09-0.45,0.16c-0.12,0.06-0.24,0.12-0.36,0.18
										c-0.11,0.05-0.29,0.11-0.35,0.22c0.02-0.02,0.04-0.04,0.06-0.06c-0.1,0.07-0.19,0.12-0.26,0.21
										C165.67,20.11,165.68,20.17,165.73,20.17L165.73,20.17z"/>
								</g>
							</g>
						</g>
						<g>
							<g>
								<path class="st1" d="M165.58,20.26c-0.18-0.13-0.37-0.27-0.59-0.26c-0.1,0-0.2,0.04-0.29,0.09
									c-0.36,0.19-0.59,0.61-0.61,1.02c-0.02,0.42,0.16,0.83,0.43,1.14c0.16,0.18,0.36,0.33,0.59,0.35
									c0.18,0.02,0.36-0.05,0.51-0.16c0.13-0.1,0.24-0.24,0.31-0.39"/>
							</g>
							<g>
								<g>
									<path class="st1" d="M164.74,21.05c0.01-0.01,0.02-0.01,0.03-0.02c0,0,0.03-0.01,0.01-0.01c-0.02,0.01,0.01,0,0.01,0
										c0.01,0,0.02-0.01,0.03-0.01s0.02,0,0.03-0.01c0.03-0.01-0.04,0-0.01,0c0.02,0,0.15-0.02,0.1-0.01c-0.04,0,0.04,0,0.04,0
										c0.02,0,0.04,0,0.06,0c0.06,0-0.01,0-0.01,0l0.03,0.01c0.04,0.01-0.04-0.02-0.01,0s-0.04-0.03-0.01-0.01
										s-0.03-0.05-0.01-0.02c0,0.01,0.01,0.02,0.01,0.02c0.02,0.03-0.01,0.02-0.01-0.02c0,0.01,0.01,0.02,0.01,0.03
										s0,0.02,0.01,0.03c-0.02-0.05-0.01-0.06-0.01-0.03c0,0.01,0,0.04,0,0c0.01-0.06-0.01,0.01-0.01,0.01
										c0,0.01,0.02-0.07,0.01-0.04c0,0.01-0.03,0.04,0,0s0.01-0.02,0.01-0.01c-0.01,0.01-0.02,0.02-0.03,0.03
										c-0.04,0.05-0.03,0.04,0-0.01c-0.03,0.02-0.05,0.06-0.08,0.09c-0.05,0.07-0.1,0.13-0.12,0.22
										c-0.03,0.1-0.01,0.21,0.04,0.31c0.07,0.13,0.2,0.21,0.33,0.26c0,0-0.06-0.03-0.04-0.01c0.01,0.01,0.02,0.01,0.03,0.02
										c0.02,0.01,0.03,0.02,0.05,0.03c0.04,0.03-0.04-0.04-0.01-0.01c0.03,0.04-0.02-0.02-0.02-0.03c0,0,0.01,0.02,0.02,0.03
										c-0.02-0.02-0.03-0.07-0.03-0.09c0,0.01,0,0.04,0-0.01c0.01-0.07-0.02,0.03,0.01-0.03c0.02-0.05,0.01-0.02,0-0.01
										c0,0,0.05-0.06,0.02-0.03c0,0,0.06-0.05,0.03-0.03c-0.01,0-0.02,0.01-0.02,0.01c0.03-0.03,0.07-0.02,0.03-0.01
										c-0.01,0-0.02,0-0.02,0.01c0.06-0.03,0.08-0.01,0.03-0.01c-0.01,0-0.02,0-0.03,0c0.06-0.01,0.06,0.01,0.02,0
										c-0.01,0-0.02-0.01-0.03-0.01c-0.07-0.02,0.05,0.03,0.02,0.01s-0.06-0.02-0.09-0.04c0.09,0.05,0.04,0.02,0.02,0.01
										c-0.01,0-0.02-0.01-0.03-0.02c0.04,0.03,0.05,0.04,0.03,0.03l-0.01-0.01c-0.01-0.01-0.01-0.01-0.02-0.02
										c-0.05-0.04,0.03,0.05,0.01,0.02c-0.03-0.05-0.05-0.1-0.08-0.14c-0.07-0.12-0.24-0.2-0.38-0.15
										c-0.15,0.05-0.24,0.17-0.25,0.32c-0.01,0.18,0.1,0.38,0.23,0.5c0.15,0.13,0.33,0.21,0.54,0.2c0.2-0.01,0.38-0.1,0.5-0.27
										c0.12-0.16,0.12-0.38,0.02-0.54c-0.05-0.08-0.11-0.14-0.19-0.18c-0.02-0.01-0.04-0.02-0.07-0.03
										c-0.03-0.01-0.06-0.03-0.09-0.04c-0.05-0.02,0.06,0.03,0.01,0c-0.02-0.01-0.04-0.02-0.06-0.03
										c0.05,0.03,0.04,0.03,0.02,0.01c-0.04-0.03,0.02,0.03,0.03,0.05c0.02,0.04,0.02,0.08,0.01,0.13
										c-0.01,0.02-0.02,0.07-0.04,0.07c0.02-0.01,0.04-0.05,0.06-0.06c0.12-0.12,0.21-0.27,0.2-0.44c0-0.2-0.1-0.38-0.26-0.49
										c-0.28-0.19-0.81-0.03-0.9,0.31c-0.02,0.07,0.01,0.14,0.06,0.18C164.6,21.07,164.68,21.09,164.74,21.05L164.74,21.05z"/>
								</g>
							</g>
							<g>
								<g>
									<path class="st1" d="M165.62,22.58c0.05-0.01,0.1-0.03,0.14-0.06c0.02-0.01,0.03-0.02,0.05-0.03
										c0.03-0.02,0.07-0.05,0.09-0.08c0.03-0.04,0.06-0.08,0.08-0.12c0.01-0.02,0.02-0.04,0.02-0.06c0-0.02,0.01-0.05,0.01-0.07
										s0-0.04,0-0.06c0-0.05-0.03-0.11-0.07-0.13c-0.03-0.01-0.04-0.02-0.08-0.02c-0.05,0-0.1,0.03-0.13,0.07
										c-0.01,0.02-0.02,0.04-0.04,0.05c0.01-0.01,0.02-0.02,0.03-0.03c-0.01,0.01-0.02,0.02-0.02,0.03
										c-0.02,0.02-0.03,0.04-0.04,0.06c-0.01,0.02-0.02,0.04-0.04,0.06c-0.03,0.04-0.05,0.08-0.08,0.12
										c0.01-0.01,0.02-0.02,0.02-0.03c-0.02,0.03-0.05,0.05-0.07,0.08c-0.04,0.04-0.05,0.11-0.02,0.16
										C165.5,22.57,165.56,22.6,165.62,22.58L165.62,22.58z"/>
								</g>
							</g>
						</g>
						<g>
							<g>
								<g>
									<path class="st1" d="M169.02,15.74c0.08,0,0.14,0.05,0.22,0.07c0.09,0.02,0.17,0.05,0.26,0.07
										c0.17,0.03,0.33,0.04,0.5,0.01c0.15-0.02,0.28-0.08,0.42-0.13c0.14-0.06,0.29-0.09,0.43-0.15
										c0.06-0.02,0.12-0.06,0.18-0.09c0.05-0.03,0.11-0.07,0.13-0.14c0.04-0.16-0.17-0.23-0.28-0.26
										c-0.17-0.04-0.33,0.03-0.49,0.09c-0.13,0.05-0.26,0.11-0.4,0.16c-0.16,0.06-0.3,0.09-0.47,0.08c-0.1,0-0.2,0-0.3,0.02
										c-0.09,0.02-0.17,0.08-0.24,0.12C168.9,15.62,168.94,15.74,169.02,15.74L169.02,15.74z"/>
								</g>
							</g>
							<g>
								<g>
									<path class="st1" d="M171.38,15.35c0,0.01,0.01,0.01,0.02,0.02c0.01,0.01,0.02,0.02,0.03,0.03
										c0.02,0.02,0.04,0.03,0.06,0.03l0,0c0.01,0,0.01,0,0.02,0.01c0.01,0,0.03,0.01,0.04,0.01s0.01,0,0.02,0.01h0.01
										c0.02,0,0.04,0.01,0.06,0.01c0.01,0,0.02,0,0.03,0c0.02,0,0.04,0,0.05-0.01c0.01,0,0.02-0.01,0.03-0.01h0.01l0,0
										c0.01-0.01,0.03-0.02,0.04-0.03c0.01-0.01,0.02-0.03,0.03-0.04l0,0c0.01-0.02,0.01-0.03,0.02-0.05
										c0.01-0.03,0.01-0.05,0-0.08c0-0.02,0-0.03-0.01-0.05s-0.02-0.05-0.04-0.06c-0.01-0.01-0.01-0.01-0.02-0.02
										c-0.02-0.02-0.04-0.03-0.07-0.04l0,0h-0.01c0,0,0,0-0.01,0c-0.02,0-0.04-0.01-0.06-0.01s-0.04,0.01-0.06,0.01
										c-0.01,0-0.02,0.01-0.03,0.01s-0.02,0.01-0.03,0.01s-0.01,0-0.02,0.01c-0.01,0-0.02,0.01-0.03,0.01s-0.01,0-0.02,0.01
										h-0.01c-0.01,0.01-0.02,0.02-0.04,0.03c-0.01,0.01-0.02,0.02-0.03,0.04c-0.02,0.03-0.02,0.06-0.02,0.09
										C171.35,15.3,171.36,15.33,171.38,15.35L171.38,15.35z"/>
								</g>
							</g>
							<g>
								<g>
									<path class="st1" d="M168.44,15.97c0.03-0.01,0.06-0.03,0.09-0.04c0,0,0.01,0,0.01-0.01c0.01-0.01,0.02-0.01,0.03-0.02
										c0.02-0.01,0.04-0.03,0.05-0.06c0.01-0.02,0.01-0.03,0.02-0.05c0,0,0,0,0-0.01s0.01-0.02,0.01-0.03
										c0-0.01,0-0.03,0.01-0.04c0-0.02,0-0.04-0.01-0.06c0-0.01-0.01-0.03-0.02-0.04c-0.01-0.02-0.03-0.03-0.05-0.04
										c-0.01-0.01-0.02-0.01-0.03-0.02c0,0,0,0-0.01,0c-0.02-0.01-0.03-0.02-0.05-0.02s-0.04-0.01-0.06-0.01
										s-0.05,0.01-0.08,0.01c-0.03,0.01-0.06,0.01-0.1,0.02c-0.04,0.01-0.07,0.03-0.1,0.06c-0.01,0.02-0.02,0.03-0.04,0.05
										c-0.02,0.04-0.03,0.07-0.03,0.11c0,0.03,0.01,0.06,0.02,0.09c0.01,0.03,0.02,0.05,0.05,0.07c0.02,0.02,0.04,0.04,0.07,0.05
										c0.03,0.01,0.06,0.02,0.09,0.02C168.36,16,168.4,15.99,168.44,15.97L168.44,15.97z"/>
								</g>
							</g>
							<g>
								<g>
									<path class="st1" d="M169.63,16.14c0.08,0.05,0.17,0.08,0.26,0.11s0.19,0.06,0.29,0.06c0.09,0,0.18-0.01,0.27-0.03
										c0.04-0.01,0.07-0.02,0.1-0.03c0.04-0.02,0.09-0.03,0.12-0.07c0.03-0.03,0.05-0.07,0.07-0.12
										c-0.02,0.03-0.03,0.06-0.05,0.09c0.04-0.05,0.09-0.1,0.09-0.17c0-0.03-0.01-0.08-0.02-0.11c-0.02-0.03-0.05-0.05-0.08-0.06
										h-0.01c0.04,0.02,0.03,0.01-0.02-0.01c-0.06-0.02-0.1,0-0.15,0.01c0.04,0,0.07,0,0.11,0c-0.08-0.01-0.14,0-0.22,0.04
										c-0.01,0.01-0.03,0.01-0.04,0.02c-0.02,0.01-0.02,0.01,0.01,0c-0.01,0-0.02,0.01-0.03,0.01c-0.03,0.01-0.06,0.02-0.09,0.03
										c-0.02,0-0.04,0.01-0.06,0.01c-0.01,0-0.01,0-0.02,0c0.04,0,0.03,0-0.03,0c-0.04,0.01-0.08,0.02-0.11,0.02
										c-0.04,0.01-0.05,0.01-0.09,0.01c-0.09,0.01-0.17,0.02-0.26,0.03C169.58,16.01,169.58,16.11,169.63,16.14L169.63,16.14z"/>
								</g>
							</g>
							<g>
								<g>
									<path class="st1" d="M170.85,15.96c0,0,0.01,0,0.01,0.01l0,0c0.01,0.01,0.03,0.01,0.04,0.02l0,0c0.02,0,0.03,0,0.05,0.01
										c0.02,0,0.03,0,0.05-0.01c0.01-0.01,0.03-0.01,0.04-0.02c0,0,0,0,0.01-0.01s0.02-0.01,0.03-0.02c0,0,0.01,0,0.01-0.01
										c0.02-0.01,0.03-0.02,0.05-0.03c0.01-0.01,0.02-0.02,0.03-0.04c0.01-0.01,0.01-0.03,0.02-0.04c0-0.02,0-0.03,0.01-0.05
										c0-0.02,0-0.05-0.02-0.07c0-0.01-0.01-0.03-0.02-0.04c-0.01-0.01-0.02-0.02-0.03-0.03c-0.01-0.01-0.02-0.02-0.04-0.02
										c-0.02-0.01-0.04-0.02-0.07-0.02c-0.01,0-0.02,0-0.03,0s-0.02,0-0.03,0h-0.01c-0.01,0-0.01,0-0.02,0
										c-0.01,0-0.02,0.01-0.03,0.01c-0.01,0.01-0.03,0.01-0.04,0.02s-0.02,0.02-0.04,0.03c-0.02,0.02-0.03,0.04-0.04,0.06
										c0,0.01-0.01,0.02-0.01,0.02c0,0.01-0.01,0.04-0.01,0.05l0,0v0.01c0,0.01,0,0.03,0.01,0.04s0.01,0.02,0.02,0.04
										C170.81,15.93,170.82,15.94,170.85,15.96L170.85,15.96z"/>
								</g>
							</g>
							<g>
								<g>
									<path class="st1" d="M169,15c0.04,0.01,0.08,0.02,0.13,0.03c-0.02-0.01-0.03-0.02-0.05-0.03c0.05,0.04,0.1,0.05,0.16,0.06
										c0.06,0.02,0.12,0.04,0.18,0.05c0.09,0.01,0.19,0.02,0.28,0.02c0.1,0,0.21-0.01,0.31-0.04c0.06-0.02,0.12-0.05,0.17-0.1
										c0.08-0.08,0.09-0.22,0.01-0.3c-0.07-0.07-0.17-0.09-0.26-0.05c-0.03,0.01-0.06,0.03-0.09,0.04
										c-0.05,0.03,0.02,0-0.02,0.01c-0.04,0.01-0.09,0.02-0.13,0.03c-0.02,0-0.02,0,0,0c-0.01,0-0.02,0-0.03,0
										c-0.02,0-0.05,0-0.07,0.01c-0.05,0-0.09,0-0.14,0c-0.06,0-0.12,0.01-0.19,0.03c-0.05,0.01-0.12,0.02-0.16,0.05
										c-0.04,0.02-0.09,0.05-0.13,0.08C168.94,14.91,168.94,14.99,169,15L169,15z"/>
								</g>
							</g>
							<g>
								<g>
									<path class="st1" d="M170.54,14.83c0.02,0,0.05,0,0.07,0c0.01,0,0.01,0,0.02,0c0.01,0,0.03,0,0.04,0
										c0.02,0,0.03,0,0.04-0.01c0.01,0,0.01,0,0.02-0.01c0.02-0.01,0.04-0.02,0.06-0.03c0.02-0.01,0.03-0.03,0.05-0.05
										c0.01-0.01,0.01-0.03,0.02-0.04c0.01-0.02,0.01-0.05,0-0.07c0-0.02,0-0.03-0.01-0.04c-0.01-0.02-0.02-0.04-0.04-0.06
										c-0.01-0.01-0.02-0.02-0.04-0.03c-0.03-0.02-0.06-0.02-0.09-0.02c-0.01,0-0.02,0-0.04,0c-0.01,0-0.02,0-0.03,0
										s-0.02,0-0.03,0h-0.01c-0.01,0-0.01,0-0.02,0c-0.02,0-0.05,0.01-0.07,0.01c-0.02,0.01-0.04,0.02-0.06,0.03
										c-0.02,0.01-0.03,0.03-0.04,0.05c-0.01,0.01-0.01,0.03-0.02,0.04c-0.01,0.02-0.01,0.05,0,0.07c0,0.02,0,0.03,0.01,0.04
										c0.01,0.02,0.02,0.04,0.04,0.06C170.46,14.81,170.5,14.83,170.54,14.83L170.54,14.83z"/>
								</g>
							</g>
							<g>
								<g>
									<path class="st1" d="M167.79,15.32c0.03,0.01-0.03-0.01-0.01-0.01c0.01,0.01,0.03,0.01,0.04,0.02
										c0.03,0.01,0.06,0.01,0.09,0c0.02,0,0.04-0.01,0.06-0.01c-0.02,0-0.03,0-0.05,0.01c0.02,0,0.04,0,0.07-0.01
										c0.03,0,0.06,0,0.09-0.01c0.01,0,0.02-0.01,0.04-0.01c0.05-0.02,0.1-0.03,0.15-0.03c-0.02,0-0.04,0.01-0.06,0.01
										c0.04,0,0.07-0.01,0.11-0.02c0.03-0.01,0.06-0.02,0.1-0.04c0.02-0.01,0.03-0.02,0.05-0.04c0.01-0.02,0.02-0.03,0.04-0.05
										c0.03-0.05,0.03-0.1,0.03-0.15c-0.01-0.09-0.08-0.18-0.17-0.2c-0.15-0.03-0.31,0.03-0.44,0.1
										c-0.07,0.04-0.11,0.1-0.16,0.17c-0.02,0.04-0.05,0.08-0.04,0.12c0,0.02,0,0.04,0.01,0.05
										C167.71,15.28,167.75,15.31,167.79,15.32L167.79,15.32z"/>
								</g>
							</g>
						</g>
						<g>
							<g>
								<path class="st1" d="M169.93,21.77c-0.04,0.01-0.07,0.07-0.06,0.13c0.06,0.34,0.24,0.65,0.5,0.81
									c0.47,0.3,1.04,0.1,1.27-0.37c0.07-0.15,0.1-0.45,0.1-0.67c0-0.07-0.04-0.12-0.09-0.11
									C171.08,21.63,170.5,21.7,169.93,21.77z"/>
							</g>
						</g>
						<g>
							<path class="st1" d="M171.37,22.99c-0.01,0-0.02,0-0.03,0c-0.32,0.04-0.64,0.11-0.97,0.09c0.06,0.1,0.26,0.18,0.47,0.17
								c0.21,0,0.43-0.07,0.53-0.2C171.39,23.02,171.39,22.99,171.37,22.99z"/>
						</g>
						<g>
							<g>
								<path class="st1" d="M166.18,41.76c0.08,0.22,0.17,0.44,0.26,0.65c0.09,0.22,0.19,0.44,0.34,0.63
									c0.16,0.19,0.38,0.33,0.59,0.46c0.6,0.37,1.22,0.74,1.62,1.31c0.06,0.08,0.11,0.18,0.11,0.28s-0.08,0.21-0.18,0.21
									c-0.06,0-0.11-0.03-0.16-0.06c-0.24-0.15-0.47-0.31-0.71-0.46c0.02,0.1,0.06,0.21,0.11,0.3c0.08,0.15,0.16,0.31,0.28,0.44
									c0.13,0.14,0.31,0.22,0.44,0.35c0.06,0.05,0.09,0.13,0.09,0.21c0,0.06-0.03,0.12-0.08,0.15c-0.03,0.01-0.06,0.01-0.09,0.01
									c-0.07,0-0.15,0-0.22-0.02c-0.02-0.01-0.06-0.03-0.08-0.02s-0.02,0.05-0.04,0.07c-0.02,0.02-0.04,0.03-0.06,0.04
									c-0.05,0.02-0.11,0.02-0.16,0.02c-0.04,0-0.07,0-0.11,0c-0.02,0-0.05,0-0.07-0.01c-0.03-0.01-0.07-0.05-0.09-0.03
									c-0.02,0.02-0.02,0.06-0.06,0.08c-0.03,0.02-0.07,0.02-0.1,0.02c-0.1,0-0.2-0.04-0.27-0.11c-0.02-0.02-0.03-0.03-0.06-0.03
									c-0.02,0.01-0.04,0.03-0.05,0.04c-0.04,0.02-0.08,0.03-0.12,0.03c-0.1,0-0.2-0.02-0.29-0.07s-0.16-0.14-0.24-0.21
									c-0.08-0.08-0.17-0.14-0.25-0.22c-0.25-0.25-0.37-0.58-0.45-0.91c-0.08-0.33-0.21-0.66-0.39-0.95
									c-0.12-0.2-0.29-0.36-0.45-0.54c-0.37-0.42-0.66-0.91-0.94-1.4c-0.05-0.08-0.1-0.17-0.15-0.25L166.18,41.76L166.18,41.76z"
									/>
								<g>
									<path class="st1" d="M167.57,46.29c-0.25-0.03-0.39-0.17-0.54-0.3c-0.11-0.16-0.24-0.32-0.23-0.55
										c0.27,0.05,0.4,0.18,0.54,0.3C167.44,45.89,167.56,46.04,167.57,46.29z"/>
								</g>
								<g>
									<path class="st1" d="M167.96,46.24c-0.28-0.07-0.45-0.25-0.62-0.42c-0.13-0.2-0.3-0.4-0.28-0.7
										c0.26,0.11,0.41,0.27,0.58,0.45C167.78,45.77,167.93,45.95,167.96,46.24z"/>
								</g>
								<g>
									<path class="st1" d="M168.54,46.2c-0.29-0.05-0.48-0.23-0.67-0.4c-0.14-0.2-0.32-0.44-0.26-0.75
										c0.24,0.16,0.39,0.31,0.56,0.48C168.31,45.73,168.47,45.91,168.54,46.2z"/>
								</g>
							</g>
							<g>
								<path class="st1" d="M165.11,27.73c-0.41-0.73-1.33-1.63-2.39-1.69c-0.43,0.25-1.09,0.84-1.09,0.84
									c0.46-0.2,0.92,0.28,1.37,0.6c0.76,0.54,1.47,1.28,1.87,2.11c0.41,0.87,0.19,4.16-0.32,4.46c0.02,0.14,0.04,0.27,0.05,0.41
									C165.97,33.47,166.71,30.53,165.11,27.73z"/>
							</g>
							<g>
								<path class="st1" d="M165.3,32.66c-0.18,0.99-0.52,2.59-0.91,3.52c-0.02,0.05-0.04,0.11-0.02,0.16
									c0.03,0.06,0.1,0.08,0.14,0.13c0.07,0.09,0,0.22,0.02,0.33c0.06,0.38,0.19,0.56,0.24,0.63c1.04,1.79,1.37,3.49,2.26,5.52
									l-0.58,0.64l-0.96,0.31c-3.42-1.94-5.46-5.65-5.73-8.08c-0.09-0.76,0.02-4.36,0.15-5.12c0.42-2.42,0.85-3.11,1.73-3.82
									c0,0,1.58-0.66,2.68,1.07C165.78,30.22,165.3,32.66,165.3,32.66z"/>
							</g>
							<g>
								<path class="st1" d="M165.42,43.86l1.03-0.27l0.09-0.1c-0.01-0.07-0.02-0.15-0.04-0.22c-0.02-0.08-0.07-0.18-0.15-0.16
									c-0.05,0.01-0.08,0.06-0.12,0.08c-0.08,0.03-0.16-0.03-0.22-0.09c-1.4-1.44-2.68-2.99-3.84-4.62
									c-0.17-0.24-0.32-0.61-0.09-0.79c0.06-0.05,0.14-0.07,0.22-0.09c0.42-0.1,0.83-0.21,1.25-0.31c0.02-0.21-0.29-0.24-0.5-0.21
									c-0.73,0.11-1.5-0.03-2.15-0.39c0.16-0.01,0.32-0.02,0.48-0.02c-0.2-0.24-0.4-0.49-0.61-0.73c0.42,0.09,0.83,0.22,1.22,0.38
									c-0.35-0.54-1.08-0.74-1.46-1.27c-0.24-0.33-0.3-0.76-0.34-1.16c-0.14-1.23-0.21-2.46-0.19-3.69
									c-0.03,0.16-0.06,0.33-0.09,0.52c-0.13,0.75-0.24,4.36-0.15,5.12C160.03,38.25,162,41.91,165.42,43.86z"/>
							</g>
							<g>
								<path class="st1" d="M167.38,43.32c-0.07-0.1-0.12-0.2-0.18-0.31c-0.03-0.05-0.06-0.1-0.1-0.15
									c-0.04-0.04-0.07-0.05-0.12-0.01c-0.18,0.16-0.39,0.27-0.6,0.39c-0.15,0.09-0.3,0.18-0.45,0.27
									c-0.09,0.05-0.19,0.07-0.27,0.12c-0.09,0.05-0.18,0.14-0.24,0.22c-0.01,0.02-0.03,0.04-0.03,0.06s0.01,0.05,0.03,0.07
									c0.05,0.08,0.11,0.16,0.16,0.25c0.02,0.02,0.03,0.05,0.05,0.07c0.07,0.06,0.19,0.03,0.28,0c0.27-0.1,0.54-0.17,0.79-0.32
									c0.23-0.13,0.5-0.31,0.66-0.53c0.02-0.02,0.04-0.05,0.04-0.07C167.4,43.35,167.39,43.34,167.38,43.32z"/>
							</g>
							<g>
								<path class="st1" d="M167.02,43.12c-0.05,0.02-0.06,0.09-0.04,0.13c0.03,0.04,0.1,0.05,0.13,0.01
									c0.01-0.01,0.02-0.02,0.02-0.04C167.17,43.18,167.13,43.07,167.02,43.12"/>
							</g>
						</g>
						<path class="st1" d="M168.7,19.47c0.04,0.23-0.06,0.44-0.21,0.46c-0.15,0.03-0.31-0.14-0.35-0.37
							c-0.04-0.23,0.06-0.44,0.21-0.46S168.66,19.24,168.7,19.47z"/>
						<path class="st1" d="M171.45,19.12c0.06,0.23,0.23,0.38,0.39,0.34c0.16-0.04,0.24-0.26,0.18-0.49
							c-0.06-0.23-0.23-0.38-0.39-0.34C171.47,18.68,171.39,18.9,171.45,19.12z"/>
						<g>
							<path class="st1" d="M170.46,19.45c0.38,0.31,0.53,0.39,0.65,0.58c0.02,0.07,0.03,0.03,0.14,0.3c0.04,0.21,0,0.44-0.15,0.58
								c-0.06,0.06-0.17,0.13-0.22,0.13l-0.12-0.01c-0.09-0.01-0.17-0.05-0.3-0.03c-0.07-0.12-0.02-0.25,0-0.36l0.06-0.14
								c0-0.04-0.04-0.02-0.07-0.02c-0.07,0.02-0.09,0.08-0.1,0.15c0.05,0.13-0.04-0.02-0.09-0.08c-0.09-0.16-0.15-0.35-0.12-0.56
								C170.15,19.79,170.24,19.58,170.46,19.45z"/>
						</g>
						<g class="st3">
							<path class="st1" d="M178.23,27.86c-3.19,1.08-4.04,6.88-3.24,14.46c2.61,1.18,4.4,0.25,4.4,0.25
								c0.56-3.32,0.88-7.28,0.37-10.6C179.54,30.53,179.15,29.08,178.23,27.86"/>
						</g>
						<g>
							<path class="st1" d="M168.84,22.45c0.1,0.16,0.63-0.05,0.84-0.42c0.01-0.01,0.01-0.02,0.02-0.03
								c-0.01,0.01-0.01,0.02-0.01,0.03c-0.23,0.49,0.53,0.24,0.66-0.08c0.05,0.22,0.37-0.08,0.48-0.33
								c0.23,0.19,0.57,0.32,0.74,0.32c0.16,0-0.09-0.25-0.11-0.27c0.02,0,0.15,0.04,0.36,0.12c0.61,0.22,1.05,0.25,0.66-0.3
								c-0.07-0.1-0.16-0.18-0.26-0.26c-0.45-0.32-1.12-0.36-1.12-0.36c-0.95-0.08-2.1,0.87-2.26,1.37
								C168.81,22.32,168.81,22.39,168.84,22.45z"/>
							<g>
								<path class="st1" d="M169.69,22.02c-0.23,0.49,0.53,0.24,0.66-0.08c0.05,0.22,0.37-0.08,0.48-0.33
									c0.23,0.19,0.57,0.32,0.74,0.32c0.16,0-0.09-0.25-0.11-0.27c0.02,0,0.15,0.04,0.36,0.12c0.61,0.22,1.05,0.25,0.66-0.3
									c-0.07-0.1-0.16-0.18-0.26-0.26c0,0,0,0.01,0.01,0.01c0.39,0.55-0.05,0.52-0.66,0.31c-0.21-0.07-0.34-0.11-0.36-0.12
									c0.02,0.02,0.27,0.27,0.11,0.27c-0.17,0-0.51-0.13-0.74-0.32c-0.12,0.25-0.44,0.55-0.48,0.33
									C170.03,21.84,169.85,21.97,169.69,22.02z"/>
								<path class="st1" d="M168.84,22.45c0.1,0.16,0.63-0.05,0.84-0.42c-0.21,0.07-0.4,0.02-0.24-0.27
									c-0.13,0.25-0.4,0.43-0.6,0.49C168.81,22.32,168.81,22.39,168.84,22.45z"/>
							</g>
						</g>
						<g>
							<g>
								<path class="st1" d="M168.35,17.13c-0.23-0.18-0.66-0.11-0.73,0.1c-0.6-0.1-1.26,0.27-1.33,0.74
									c-0.01,0.07-0.01,0.14,0.03,0.19c0.07,0.08,0.21,0.06,0.32,0.02c0.22-0.08,0.43-0.18,0.63-0.32
									c-0.01,0.05,0.04,0.09,0.09,0.11c0.05,0.01,0.1,0,0.15-0.02c0.17-0.05,0.38-0.11,0.45-0.27c0.12,0,0.24,0.02,0.36,0
									s0.46-0.02,0.52-0.09C168.91,17.52,168.91,17.11,168.35,17.13"/>
							</g>
							<g>
								<path class="st1" d="M168.5,17c-0.24-0.19-0.68-0.14-0.77,0.07c-0.63-0.12-1.33,0.24-1.43,0.71
									c-0.02,0.07-0.02,0.14,0.02,0.19c0.07,0.08,0.22,0.06,0.33,0.02c0.24-0.07,0.46-0.18,0.68-0.3c-0.01,0.05,0.04,0.1,0.1,0.11
									c0.05,0.01,0.11,0,0.16-0.01c0.18-0.04,0.41-0.09,0.48-0.25c0.13,0.01,0.26,0.03,0.38,0.02c0.12-0.02,0.48,0.01,0.55-0.07
									C169.08,17.42,169.09,17,168.5,17"/>
							</g>
							<g>
								<path class="st1" d="M169.01,17.45c-0.01-0.02-0.05-0.03-0.07-0.03c-0.22-0.03-0.43-0.01-0.64-0.03
									c-0.08-0.01-0.16-0.02-0.22-0.07c-0.1,0.1-0.23,0.18-0.38,0.23c-0.05,0.02-0.13,0.03-0.16-0.01
									c-0.01-0.02-0.02-0.03-0.02-0.05c-0.01-0.06,0.01-0.12,0.04-0.18c-0.35,0.15-0.65,0.34-0.98,0.49
									c-0.09,0.04-0.2,0.07-0.29,0.05c0,0.04,0,0.09,0.03,0.12c0.07,0.08,0.22,0.06,0.33,0.02c0.24-0.07,0.46-0.18,0.68-0.3
									c-0.01,0.05,0.04,0.1,0.1,0.11c0.05,0.01,0.11,0,0.16-0.01c0.18-0.04,0.41-0.09,0.48-0.25c0.13,0.01,0.26,0.03,0.38,0.02
									c0.12-0.02,0.48,0.01,0.55-0.07l0.01-0.01C169.01,17.46,169.02,17.46,169.01,17.45z"/>
							</g>
						</g>
						<g>
							<g>
								<path class="st1" d="M172.33,16.61c-0.12-0.21-0.75-0.18-0.82,0.04c-0.25-0.11-0.7,0.12-0.81,0.42
									c-0.02,0.06-0.02,0.13,0.01,0.18c0.05,0.1,0.16,0.11,0.25,0.1c0.17-0.02,0.33-0.07,0.48-0.17c-0.01,0.05,0.02,0.1,0.06,0.12
									c0.03,0.02,0.07,0.02,0.11,0.01c0.12-0.02,0.27-0.06,0.34-0.21c0.08,0.02,0.16,0.04,0.25,0.03c0.08-0.01,0.32,0,0.39-0.08
									C172.63,17,172.75,16.64,172.33,16.61"/>
							</g>
							<g>
								<path class="st1" d="M172.53,16.54c-0.11-0.22-0.77-0.23-0.86-0.01c-0.26-0.12-0.74,0.08-0.88,0.37
									c-0.03,0.06-0.03,0.13-0.01,0.18c0.05,0.1,0.16,0.12,0.25,0.11c0.18-0.01,0.35-0.06,0.52-0.14
									c-0.01,0.05,0.02,0.1,0.05,0.12s0.07,0.02,0.11,0.02c0.13-0.01,0.29-0.04,0.37-0.19c0.08,0.02,0.17,0.05,0.26,0.05
									c0.09-0.01,0.34,0.02,0.41-0.04C172.83,16.95,172.97,16.6,172.53,16.54"/>
							</g>
							<g>
								<path class="st1" d="M172.77,16.98c0-0.02-0.03-0.03-0.04-0.03c-0.15-0.03-0.31-0.03-0.45-0.06
									c-0.05-0.01-0.11-0.04-0.13-0.09c-0.1,0.09-0.2,0.15-0.31,0.18c-0.04,0.01-0.09,0.01-0.11-0.03c-0.01-0.02-0.01-0.04,0-0.06
									c0.01-0.06,0.03-0.12,0.07-0.17c-0.28,0.09-0.52,0.21-0.78,0.26c-0.07,0.01-0.16,0.02-0.22-0.03
									c-0.01,0.04-0.01,0.08,0.01,0.12c0.05,0.1,0.16,0.12,0.25,0.11c0.18-0.01,0.35-0.06,0.52-0.14
									c-0.01,0.05,0.02,0.1,0.05,0.12s0.07,0.02,0.11,0.02c0.13-0.01,0.29-0.04,0.37-0.19c0.08,0.02,0.17,0.05,0.26,0.05
									c0.09-0.01,0.34,0.02,0.41-0.04l0.01-0.01C172.76,17,172.77,16.99,172.77,16.98z"/>
							</g>
						</g>
						
							<ellipse transform="matrix(0.9864 -0.1646 0.1646 0.9864 -1.2202 27.8062)" class="st1" cx="167.18" cy="21.27" rx="0.54" ry="0.28"/>
						
							<ellipse transform="matrix(0.9864 -0.1646 0.1646 0.9864 -1.0521 28.7387)" class="st1" cx="172.89" cy="20.72" rx="0.43" ry="0.22"/>
					</g>
					<g>
						<g>
							<g>
								<g class="st3">
									<path class="st1" d="M190.43,42.04c-0.2-3.26-0.02-7.14-0.54-10.13c-0.05-0.28-0.1-0.56-0.17-0.83
										c-0.22-0.92-0.52-1.74-0.96-2.38c-0.04-0.06-0.08-0.12-0.12-0.18c-0.03-0.04-0.07-0.09-0.1-0.13
										c-0.43-0.53-0.97-0.91-1.64-1.1c-0.4-0.21-0.76-0.33-1.13-0.42c0.16-0.08,0.31-0.18,0.45-0.3
										c0.17-0.14,0.33-0.29,0.53-0.39c0.25-0.12,0.54-0.11,0.81-0.15c0.5-0.07,0.96-0.39,1.18-0.84
										c0.22-0.45,0.18-1.03-0.13-1.42c-0.07-0.09-0.15-0.18-0.16-0.29c0-0.1,0.06-0.18,0.12-0.27c0.47-0.7,0.27-1.76-0.41-2.24
										c-0.17-0.12-0.37-0.21-0.54-0.33c-0.58-0.41-0.83-1.14-1.2-1.74c-0.6-0.98-1.59-1.72-2.71-2
										c-1.12-0.28-2.29-0.29-3.28,0.29c-0.56,0.33-0.69,0.61-0.93,1.12c-1.39-0.19-2.24,0.94-2.47,2.11
										c-0.13,0.68-0.54,1.16-1.05,1.61c-0.44,0.39-0.84,0.9-1.01,1.47c-0.09,0.3-0.09,0.63,0.05,0.9
										c0.27,0.5,1.05,0.47,1.16,1.02c0.07,0.33-0.05,0.57,0.14,0.88c0.35,0.57,0.97,0.81,1.6,0.89c0.82,0.1,0.57-0.19,2.09,0.27
										c0.79,0.24,2.31-0.54,2.8-0.7c0.57-0.19,1.16,0.27,1.75,0.35c-0.29,0.21-0.63,0.39-1,0.5c0,0.03,0.01,0.06,0.02,0.09
										c-0.92-0.04-1.86,0.12-2.71,0.48c-0.17,0.07-0.34,0.15-0.46,0.29c-0.11,0.12-0.16,0.28-0.21,0.43
										c-0.83,2.6,0.05,5.46-0.45,8.14c-1.23,1.31-2.33,3.66-3.11,5.31c-0.83,1.76-1.36,4.11-1.53,5.26
										c-0.01,0.07-0.02,0.14-0.03,0.21c-0.02,0.19-0.03,0.33-0.03,0.41c0.02,0.54,1.54,1.52,2.57,1.62
										c1.03,0.1,2.6,0.7,4.25,1.31c1.43,0.53,3.08,0.25,3.76,0.03c0.11-0.03,0.19-0.06,0.24-0.09c0.03-0.02,0.06-0.03,0.1-0.06
										c0.34-0.23,0.56-0.75,0.99-2.05c0.93-2.82,1.65-2.82,2.75-4.15c0.68-0.82,0.81-1.83,0.68-2.81
										C190.4,42.05,190.41,42.05,190.43,42.04z"/>
								</g>
								<g>
									<path class="st1" d="M179.36,17.75c-1.39-0.19-2.24,0.94-2.47,2.11c-0.13,0.68-0.54,1.16-1.05,1.61
										c-0.44,0.39-0.84,0.9-1.01,1.47c-0.09,0.3-0.09,0.63,0.05,0.9c0.27,0.5,1.05,0.47,1.16,1.02c0.07,0.33-0.05,0.57,0.14,0.88
										c0.35,0.57,0.97,0.81,1.6,0.89c0.82,0.1,0.57-0.19,2.09,0.27c0.79,0.24,2.31-0.54,2.8-0.7c0.62-0.2,1.27,0.37,1.93,0.37
										c0.55,0,1.06-0.21,1.48-0.56c0.17-0.14,0.33-0.29,0.53-0.39c0.25-0.12,0.54-0.11,0.81-0.15c0.5-0.07,0.96-0.39,1.18-0.84
										c0.22-0.45,0.18-1.03-0.13-1.42c-0.07-0.09-0.15-0.18-0.16-0.29c0-0.1,0.06-0.18,0.12-0.27c0.47-0.7,0.27-1.76-0.41-2.24
										c-0.17-0.12-0.37-0.21-0.54-0.33c-0.58-0.41-0.83-1.14-1.2-1.74c-0.6-0.98-1.59-1.72-2.71-2
										c-1.12-0.28-2.29-0.29-3.28,0.29C179.74,16.96,179.6,17.24,179.36,17.75"/>
								</g>
								<g>
									<path class="st1" d="M181.12,23.95c-0.5-0.34-1.08-0.59-1.41-1.09c-0.07-0.11-0.14-0.25-0.26-0.3l-1.5-1.48
										c0.17,0.46,0.05,1.02-0.3,1.36c-0.17,0.16-0.38,0.28-0.5,0.48c-0.22,0.34-0.11,0.79-0.12,1.2c0,0.07-0.01,0.15-0.07,0.19
										c-0.11,0.08-0.25-0.06-0.34-0.17c-0.05-0.06-0.11-0.12-0.17-0.18c-0.04-0.03-0.09-0.07-0.15-0.07
										c-0.05,0-0.1,0.03-0.14,0.05c-0.28,0.15-0.65,0.13-0.91-0.05c-0.27-0.17-0.43-0.5-0.41-0.82c-0.01,0-0.02,0-0.03,0
										c-0.05,0.25-0.03,0.52,0.09,0.74c0.27,0.5,1.05,0.47,1.16,1.02c0.07,0.33-0.05,0.57,0.14,0.88
										c0.35,0.57,0.97,0.81,1.6,0.89c0.82,0.1,0.57-0.19,2.09,0.27c0.7,0.21,1.99-0.38,2.61-0.63c0-0.4-0.1-0.8-0.29-1.15
										C181.95,24.64,181.56,24.25,181.12,23.95z"/>
								</g>
								<g>
									<path class="st1" d="M188.69,21.95c-0.04-0.03-0.09-0.07-0.13-0.1c-0.04-0.03-0.08-0.05-0.12-0.05
										c-0.07,0-0.14,0.06-0.16,0.13c-0.03,0.07-0.02,0.14-0.03,0.22c-0.02,0.18-0.08,0.36-0.19,0.51
										c-0.04,0.06-0.1,0.12-0.12,0.19c-0.05,0.15,0.03,0.3,0.11,0.44c0.09,0.16,0.19,0.33,0.28,0.49
										c0.08,0.14,0.16,0.29,0.15,0.45c-0.01,0.16-0.17,0.32-0.32,0.26c-0.11-0.04-0.16-0.17-0.17-0.29s0-0.24-0.04-0.35
										c-0.02-0.06-0.08-0.11-0.13-0.08c-0.02,0.02-0.03,0.05-0.03,0.07c-0.01,0.14,0.01,0.27-0.01,0.41
										c-0.02,0.13-0.07,0.28-0.18,0.35c-0.11,0.07-0.3,0.04-0.35-0.08c-0.04-0.1,0.01-0.21,0.04-0.31c0.15-0.48-0.09-1-0.39-1.41
										c-0.06-0.09-0.13-0.17-0.23-0.22c-0.1-0.05-0.22-0.04-0.32-0.09c-0.25-0.12-0.27-0.46-0.33-0.73s-0.21-0.53-0.41-0.72
										l-1.28-0.44c-0.69,0.65-1.04,1.62-1.05,2.57c-0.01,0.95,0.3,1.88,0.76,2.71c0.13,0.24,0.29,0.47,0.46,0.68
										c0.04,0,0.08,0.01,0.12,0.01c0.55,0,1.06-0.21,1.48-0.56c0.17-0.14,0.33-0.29,0.53-0.39c0.25-0.12,0.54-0.11,0.81-0.15
										c0.5-0.07,0.96-0.39,1.18-0.84c0.22-0.45,0.18-1.03-0.13-1.42c-0.07-0.09-0.15-0.18-0.16-0.29c0-0.1,0.06-0.18,0.12-0.27
										C188.58,22.45,188.67,22.2,188.69,21.95z"/>
								</g>
							</g>
							<g>
								<path class="st1" d="M188.77,44.64c-1.1,1.32-1.82,1.33-2.75,4.15c-0.43,1.3-0.65,1.82-0.99,2.05
									c-0.03,0.02-0.06,0.04-0.1,0.06c-0.05,0.03-0.14,0.06-0.24,0.09c-0.68,0.21-2.33,0.5-3.76-0.03
									c-1.66-0.61-3.22-1.2-4.25-1.31s-2.56-1.08-2.57-1.62c0-0.08,0.01-0.22,0.03-0.41c0.01-0.06,0.02-0.13,0.03-0.21
									c0.17-1.15,0.69-3.51,1.53-5.26c0.81-1.71,1.98-4.19,3.26-5.47l0,0c0.37-0.37,0.75-0.63,1.13-0.75
									c1.56,0.14,4.55,0.95,4.64,0.93c0.09-0.01,3.14,1.18,3.14,1.18S190.83,42.17,188.77,44.64z"/>
								<path class="st5" d="M185.04,50.87c-0.03,0.02-0.06,0.04-0.1,0.06c-0.05,0.03-0.14,0.06-0.24,0.09
									c-0.68,0.21-2.33,0.5-3.76-0.03c-1.66-0.61-3.22-1.2-4.25-1.31s-2.56-1.08-2.57-1.62c0-0.08,0.01-0.22,0.03-0.41
									c0.01-0.06,0.02-0.13,0.03-0.21c0.69-0.6,2.66-1.4,7.77,1.21C183.73,49.55,184.44,49.94,185.04,50.87z"/>
								<g>
									<g>
										<defs>
											<path id="SVGID_3_" d="M173.86,47.84c0,0,1.17-2.73,8.09,0.81c2.16,1.09,2.75,1.44,3.47,2.89l10.98,14.44
												c0,0-22.25,2.65-23.2,1.89s-7.02-4.3-7.02-4.3s-0.39-3.26-0.24-3.5C166.09,59.83,173.86,47.84,173.86,47.84z"/>
										</defs>
										<use xlink:href="#SVGID_3_"  style="overflow:visible;fill:#145267;"/>
										<clipPath id="SVGID_4_">
											<use xlink:href="#SVGID_3_"  style="overflow:visible;"/>
										</clipPath>
										<g class="st8">
											<path class="st4" d="M182.78,58.53c0,0,0.16-0.58,0.31-1.17c0.12-0.47,0.22-0.94,0.23-1.12c0.01-0.42-0.38-1.54-0.85-2.3
												c-0.36-0.59-2.08-4.27-2.99-6.2c-0.27-0.58-0.47-1-0.53-1.14c-0.07-0.14-0.13-0.3-0.19-0.46
												c-0.09-0.25-0.17-0.51-0.22-0.71c0.7-0.16,1.36-0.31,1.92-0.46c0.76-0.21,1.44-0.28,2.01-0.27l0,0
												c0.03,0.03,0.43,0.48,0.89,1.41c-0.19,0.15-0.39,0.31-0.61,0.46c0.65,1.44,1.56,6.72,2.03,8.06
												c0.25,0.7,0.46,0.97,0.6,1.13c0.16,0.17,0.24,0.2,0.23,0.48c-0.01,0.21-0.07,0.68-0.16,1.22
												c0.13,0.09,0.27,0.19,0.4,0.31c-0.01,0.32,0,0.6,0,0.6s-0.29,0.23-0.66,0.52c-0.57,0.44-1.34,1.03-1.62,1.2l0,0
												c-0.06,0.03-0.09,0.05-0.1,0.04C183.41,60.05,182.78,58.53,182.78,58.53z"/>
											<path class="st1" d="M182.68,61.36c0.36,0.48,1.08,0.96,2.46,0.36c1.4-0.62,1.56-2.39,1.66-3.33
												c0.1-0.95,0.15-1.93,0.14-2.18c-0.01-0.18-0.06-0.52-0.42-0.69c-0.05-0.02-0.1-0.04-0.15-0.06l0,0
												c-0.13-0.04-0.28-0.06-0.47-0.05c-0.08,0.03-0.16,0.08-0.23,0.15c-0.28,0.25-0.56,0.74-0.82,1.34
												c-0.39,0.89-0.73,2.04-0.99,2.99c-0.1,0.37-0.19,0.72-0.26,1.01l0,0c-0.11,0.47-1.02-0.02-1.18-0.11
												c-0.02-0.01-0.03-0.02-0.03-0.02S182.45,61.06,182.68,61.36z"/>
											<path class="st5" d="M182.68,61.36c0.36,0.48,1.08,0.96,2.46,0.36c1.4-0.62,1.56-2.39,1.66-3.33
												c0.1-0.95,0.15-1.93,0.14-2.18c-0.01-0.18-0.06-0.52-0.42-0.69c0.15,0.11,0.13,0.35,0.14,0.56
												c0.01,0.25-0.19,1.78-0.2,1.82l0,0c-0.03,0.04-0.52,0.59-1.09,1.22c-0.74,0.81-1.62,1.74-1.78,1.77l0,0
												c-0.11,0.47-1.02-0.02-1.18-0.11c-0.02-0.01-0.03-0.02-0.03-0.02S182.45,61.06,182.68,61.36z"/>
											<path class="st1" d="M183.05,58.33c0,0,0.16-0.58,0.31-1.17c0.12-0.47,0.22-0.94,0.23-1.12c0.01-0.42-0.38-1.54-0.85-2.3
												c-0.36-0.59-2.08-4.27-2.99-6.2c-0.27-0.58-0.47-1-0.53-1.14c-0.07-0.14-0.13-0.3-0.19-0.46
												c-0.09-0.25-0.17-0.51-0.22-0.71c0.7-0.16,1.36-0.31,1.92-0.46c0.76-0.21,1.44-0.28,2.01-0.27l0,0
												c0.03,0.03,0.43,0.48,0.89,1.41c-0.19,0.15-0.39,0.31-0.61,0.46c0.65,1.44,1.56,6.72,2.03,8.06
												c0.25,0.7,0.46,0.97,0.6,1.13c0.16,0.17,0.24,0.2,0.23,0.48c-0.01,0.21-0.07,0.68-0.16,1.22
												c0.13,0.09,0.27,0.19,0.4,0.31c-0.01,0.32,0,0.6,0,0.6s-0.29,0.23-0.66,0.52c-0.57,0.44-1.34,1.03-1.62,1.2l0,0
												c-0.06,0.03-0.09,0.05-0.1,0.04C183.68,59.85,183.05,58.33,183.05,58.33z"/>
											<g>
												<path class="st4" d="M178.65,60.91c0.01,0.01,0.04-0.01,0.1-0.04l0,0c0.25-0.15,0.91-0.65,1.46-1.07
													c0.45-0.35,0.82-0.64,0.82-0.64s-0.01-0.28,0.01-0.6l0,0c-0.15-0.14-0.31-0.25-0.46-0.35c0.06-0.42,0.08-0.79,0.08-1.03
													c-0.01-0.16-0.09-0.31-0.22-0.41c-0.02-0.01-0.04-0.03-0.05-0.05c-0.5-0.48-0.85-2.02-0.9-3.78
													c-0.04-1.46-0.68-3.67-1.33-4.95c-0.55,0.17-1.03,0.36-1.39,0.55c-0.5,0.27-1.26,0.41-1.9,0.41
													c0.94,2.01,2.45,5.21,2.78,5.76c0.46,0.76,0.86,1.88,0.85,2.3c0,0.19-0.11,0.66-0.23,1.12l0,0
													c-0.15,0.59-0.31,1.17-0.31,1.17S178.58,60.84,178.65,60.91z"/>
												<path class="st1" d="M177.88,62.09c0.13,0.23,0.34,0.47,0.64,0.62c0.05,0.03,0.11,0.05,0.16,0.07
													c0.01,0.01,0.03,0.01,0.04,0.01c0.02,0.01,0.04,0.01,0.06,0.02c0.37,0.11,0.85,0.09,1.47-0.16
													c0.05-0.02,0.11-0.04,0.16-0.07c1-0.45,1.37-1.49,1.53-2.38c0.06-0.35,0.1-0.68,0.12-0.95c0.1-0.94,0.15-1.93,0.14-2.18
													c-0.01-0.18-0.06-0.52-0.42-0.69c-0.04-0.02-0.1-0.04-0.15-0.06l0,0c-0.13-0.04-0.28-0.06-0.47-0.05
													c-0.14,0.05-0.28,0.17-0.41,0.33c-0.22,0.27-0.44,0.68-0.65,1.16c-0.39,0.9-0.73,2.04-0.99,2.99
													c-0.1,0.37-0.19,0.72-0.26,1l0,0c-0.13,0.52-1.21-0.23-1.21-0.23s0.01,0.04,0.02,0.09
													C177.7,61.72,177.76,61.9,177.88,62.09z"/>
												<path class="st1" d="M179.02,60.79c0.01,0.01,0.04-0.01,0.1-0.04l0,0c0.25-0.15,0.91-0.65,1.46-1.07
													c0.45-0.35,0.82-0.64,0.82-0.64s-0.01-0.28,0.01-0.6l0,0c-0.15-0.14-0.31-0.25-0.46-0.35c0.06-0.42,0.08-0.79,0.08-1.03
													c-0.01-0.16-0.09-0.31-0.22-0.41c-0.02-0.01-0.04-0.03-0.05-0.05c-0.5-0.48-0.85-2.02-0.9-3.78
													c-0.04-1.46-0.68-3.67-1.33-4.95c-0.55,0.17-1.03,0.36-1.39,0.55c-0.5,0.27-1.26,0.41-1.9,0.41
													c0.94,2.01,2.45,5.21,2.78,5.76c0.46,0.76,0.86,1.88,0.85,2.3c0,0.19-0.11,0.66-0.23,1.12l0,0
													c-0.15,0.59-0.31,1.17-0.31,1.17S178.95,60.72,179.02,60.79z"/>
												<path class="st5" d="M177.88,62.11c0.13,0.22,0.34,0.46,0.64,0.61c0.05,0.03,0.11,0.05,0.16,0.07
													c0.01,0.01,0.03,0.01,0.04,0.01c0.02,0.01,0.04,0.01,0.06,0.02c0.37,0.1,0.85,0.08,1.47-0.16
													c0.05-0.02,0.11-0.04,0.16-0.07c1.01-0.44,1.37-1.48,1.53-2.38c0.06-0.35,0.1-0.68,0.12-0.95
													c0.1-0.94,0.15-1.93,0.14-2.18c-0.01-0.18-0.06-0.52-0.42-0.69c0.15,0.11,0.13,0.35,0.14,0.56
													c0.01,0.25-0.2,1.82-0.2,1.82s-0.7,0.8-1.42,1.57c-0.65,0.71-1.31,1.39-1.45,1.41l0,0c-0.13,0.52-1.21-0.23-1.21-0.23
													s0.01,0.04,0.02,0.09C177.7,61.73,177.76,61.91,177.88,62.11z"/>
												<path class="st1" d="M177.85,61.92c0.2,0.3,0.48,0.58,0.81,0.73c0.37,0.17,0.86-0.01,1.2-0.18
													c0.28-0.14,0.56-0.25,0.81-0.44c0.49-0.36,0.76-0.88,0.87-1.47c0.05-0.29,0.07-0.58,0.1-0.87
													c0.01-0.15,0.02-0.31,0.04-0.46c0.01-0.08,0.02-0.16,0.02-0.24c0-0.03,0.05-0.21,0.03-0.23
													c-0.11-0.12-0.22-0.23-0.32-0.32l0,0c-0.15-0.14-0.31-0.25-0.46-0.35c-0.99-0.62-1.87-0.31-2.32-0.07
													c-0.2,0.11-0.32,0.21-0.32,0.21s-0.62,1.82-0.74,2.71C177.52,61.29,177.66,61.64,177.85,61.92z"/>
											</g>
											<path class="st1" d="M174.41,47.08c0.03,0.06,0.05,0.12,0.08,0.18c0.07,0.14,0.27,0.58,0.55,1.17
												c0.06,0.13,0.13,0.27,0.2,0.42c0.64,0,1.4-0.14,1.9-0.41c0.36-0.2,0.84-0.38,1.39-0.55c0.24-0.08,0.5-0.15,0.77-0.22
												c-0.53-1.35-1.09-2.07-1.24-2.25C176.61,45.77,175.16,46.25,174.41,47.08z"/>
											<path class="st1" d="M185.66,55.55c0.08-0.07,0.16-0.12,0.23-0.15c-0.06-0.06-0.12-0.13-0.17-0.21
												c-0.36-0.81-0.59-2.15-0.64-3.29c-0.19-2.87-0.87-4.82-1.45-5.99c-0.19,0.15-0.39,0.31-0.61,0.46
												c0.65,1.44,1.56,6.72,2.03,8.06C185.3,55.12,185.51,55.39,185.66,55.55z"/>
											<path class="st1" d="M185.66,55.55c0.08-0.07,0.16-0.12,0.23-0.15c-0.06-0.06-0.12-0.13-0.17-0.21
												c-0.36-0.81-0.59-2.15-0.64-3.29c-0.19-2.87-0.87-4.82-1.45-5.99c-0.19,0.15-0.39,0.31-0.61,0.46
												c0.65,1.44,1.56,6.72,2.03,8.06C185.3,55.12,185.51,55.39,185.66,55.55z"/>
											<path class="st1" d="M182.87,46.09c0.05,0.06,0.1,0.15,0.15,0.27c0.22-0.15,0.43-0.3,0.61-0.46
												c-0.46-0.94-0.86-1.38-0.89-1.41l0,0c-0.57,0-1.25,0.07-2.01,0.27c-0.56,0.15-1.23,0.3-1.92,0.46
												c0.05,0.2,0.13,0.46,0.22,0.71C179.52,45.63,181.52,44.5,182.87,46.09z"/>
											<path class="st1" d="M185.73,57.26c0.13,0.09,0.27,0.19,0.4,0.31l0,0l0,0c0.01-0.3,0.04-0.63,0.1-0.76
												c0.24-0.81-0.04-1.05-0.35-1.4c-0.08,0.03-0.16,0.08-0.23,0.15c0.16,0.17,0.24,0.2,0.23,0.48
												C185.88,56.24,185.82,56.71,185.73,57.26z"/>
											<path class="st1" d="M185.73,57.26c0.13,0.09,0.27,0.19,0.4,0.31l0,0l0,0c0.01-0.3,0.04-0.63,0.1-0.76
												c0.24-0.81-0.04-1.05-0.35-1.4c-0.08,0.03-0.16,0.08-0.23,0.15c0.16,0.17,0.24,0.2,0.23,0.48
												C185.88,56.24,185.82,56.71,185.73,57.26z"/>
											<path class="st1" d="M182.56,61.08L182.56,61.08c0.31,0.48,0.83,0.81,1.24,0.75c1.95-0.08,2.4-2.25,2.66-3.94
												c-0.11-0.12-0.22-0.23-0.32-0.32c-0.13-0.12-0.27-0.23-0.4-0.31c-1.02-0.66-1.92-0.35-2.37-0.1
												c-0.2,0.11-0.32,0.21-0.32,0.21s-0.62,1.82-0.74,2.71C182.25,60.42,182.37,60.78,182.56,61.08z"/>
											<path class="st6" d="M182.68,61.36c0.36,0.48,1.08,0.96,2.46,0.36c1.4-0.62,1.56-2.39,1.66-3.33
												c0.1-0.95,0.15-1.93,0.14-2.18c-0.01-0.18-0.06-0.52-0.42-0.69c-0.05-0.02-0.1-0.04-0.15-0.06l0,0
												c-0.13-0.04-0.28-0.06-0.47-0.05c0.3,0.35,0.59,0.59,0.35,1.4c-0.07,0.14-0.09,0.47-0.1,0.76l0,0l0,0
												c-0.13-0.12-0.27-0.23-0.4-0.31c-0.08,0.46-0.17,0.98-0.27,1.42c-0.03,0.15-0.07,0.3-0.1,0.43
												c-0.06,0.24-0.11,0.44-0.16,0.56c-0.23,0.62-1.44,2.18-2.65,1.4l0,0C182.6,61.18,182.64,61.27,182.68,61.36z"/>
											<path class="st1" d="M180.94,58.09c0.15,0.09,0.31,0.21,0.46,0.35l0,0c0.01-0.3,0.04-0.63,0.1-0.77
												c0.24-0.81-0.04-1.05-0.34-1.4l0,0c-0.06-0.06-0.11-0.13-0.17-0.21c-0.36-0.81-0.59-2.15-0.64-3.29
												c-0.15-2.25-0.6-3.92-1.06-5.11c-0.27,0.07-0.53,0.15-0.77,0.22c0.65,1.28,1.29,3.48,1.33,4.95
												c0.04,1.75,0.4,3.29,0.9,3.78c0.02,0.02,0.03,0.03,0.05,0.05c0.13,0.1,0.21,0.25,0.22,0.41
												C181.03,57.31,181,57.67,180.94,58.09z"/>
											<path class="st1" d="M180.94,58.09c0.15,0.09,0.31,0.21,0.46,0.35l0,0c0.01-0.3,0.04-0.63,0.1-0.77
												c0.24-0.81-0.04-1.05-0.34-1.4l0,0c-0.06-0.06-0.11-0.13-0.17-0.21c-0.36-0.81-0.59-2.15-0.64-3.29
												c-0.15-2.25-0.6-3.92-1.06-5.11c-0.27,0.07-0.53,0.15-0.77,0.22c0.65,1.28,1.29,3.48,1.33,4.95
												c0.04,1.75,0.4,3.29,0.9,3.78c0.02,0.02,0.03,0.03,0.05,0.05c0.13,0.1,0.21,0.25,0.22,0.41
												C181.03,57.31,181,57.67,180.94,58.09z"/>
											<path class="st1" d="M177.84,46.94c0.21,0.14,0.45,0.48,0.69,0.95c0.24-0.08,0.5-0.15,0.77-0.22
												c-0.53-1.35-1.09-2.07-1.24-2.25c-1.45,0.36-2.89,0.84-3.64,1.67c0.03,0.06,0.05,0.12,0.08,0.18
												c0.07,0.14,0.11,0.18,0.38,0.77C174.98,47.43,176.5,46.21,177.84,46.94z"/>
											<path class="st6" d="M177.88,62.11c0.13,0.22,0.34,0.46,0.64,0.61c0.05,0.03,0.11,0.05,0.16,0.07
												c0.01,0.01,0.03,0.01,0.04,0.01c0.02,0.01,0.04,0.01,0.06,0.02c0.37,0.11,0.85,0.09,1.47-0.16
												c0.05-0.02,0.11-0.04,0.16-0.07c1.01-0.44,1.37-1.48,1.53-2.38c0.06-0.35,0.1-0.68,0.12-0.95
												c0.1-0.94,0.15-1.93,0.14-2.18c-0.01-0.18-0.06-0.52-0.42-0.69c-0.04-0.02-0.1-0.04-0.15-0.06l0,0
												c-0.13-0.04-0.28-0.06-0.47-0.05l0,0c0.3,0.35,0.59,0.59,0.34,1.4c-0.06,0.14-0.09,0.47-0.1,0.77l0,0
												c-0.15-0.14-0.31-0.25-0.46-0.35c-0.07,0.48-0.19,1.04-0.37,1.58c-0.08,0.23-0.16,0.45-0.26,0.66
												c-0.49,1.05-1.27,1.85-2.46,1.58c0.01,0.06,0.02,0.11,0.03,0.17C177.88,62.1,177.88,62.1,177.88,62.11z"/>
										</g>
									</g>
								</g>
								<path class="st5" d="M180.93,43.31c0,0-1.39,1.06-1.36,3.15C179.16,44.77,179.45,43.49,180.93,43.31z"/>
							</g>
							<g>
								<g>
									<g>
										<path class="st1" d="M181.09,26.54c0.03,0.23-0.05,0.48-0.22,0.65c-0.17,0.16-0.42,0.24-0.65,0.19
											c0.06,0.37,0.34,0.68,0.68,0.86s0.72,0.24,1.1,0.27c0.24,0.02,0.47,0.04,0.71,0.02c0.71-0.06,1.39-0.45,1.8-1.03
											c0.03-0.04,0.06-0.1,0.03-0.14c-0.02-0.02-0.05-0.03-0.07-0.04c-0.24-0.06-0.53,0.03-0.72-0.12
											c-0.07-0.06-0.12-0.14-0.15-0.23c-0.13-0.29-0.23-0.59-0.28-0.9"/>
									</g>
									<g>
										<path class="st1" d="M183.53,28.27c-1.32-0.26-2.73-0.1-3.95,0.48c-0.17,0.08-0.33,0.17-0.45,0.31
											c-0.1,0.13-0.15,0.29-0.19,0.44c-0.73,2.71,0.35,5.62-0.13,8.39c-0.05,0.29-0.12,0.59-0.1,0.89
											c0.08,1.04,1.81,1.31,2.63,1.4c1.12,0.12,2.28-0.07,3.3-0.58c1.24-0.62,0.99-1.88,1.27-3.06c0.21-0.9,0.42-1.79,0.63-2.69
											c0.2-0.87,0.41-1.75,0.31-2.64c-0.07-0.61-0.28-1.2-0.49-1.77c-0.08-0.22-0.16-0.45-0.32-0.62
											c-0.29-0.31-0.75-0.36-1.17-0.4"/>
									</g>
									<g>
										<path class="st1" d="M181.93,27.53c0.47,0.07,0.96,0,1.39-0.21c0.12-0.06,0.24-0.13,0.34-0.22
											c-0.03-0.05-0.06-0.1-0.08-0.15c-0.13-0.29-0.23-0.59-0.28-0.9l-2.21,0.47c0.03,0.2-0.03,0.42-0.16,0.58
											C181.22,27.33,181.57,27.48,181.93,27.53z"/>
									</g>
								</g>
								<g>
									<g>
										<path class="st1" d="M180.88,27.11c-0.87,0.02-1.85,0.31-2.33,0.64V28c0.23,0.23,0.47,0.45,0.72,0.66
											c0.24,0.2,0.49,0.39,0.78,0.5c0.28,0.11,0.57,0.15,0.87,0.16c0.17,0,0.33,0,0.49-0.05c0.24-0.08,0.45-0.26,0.59-0.48
											s0.22-0.47,0.27-0.73C181.72,27.87,181.22,27.52,180.88,27.11z"/>
									</g>
									<g>
										<path class="st1" d="M183.64,27.11c0.76,0.08,1.36,0.17,2.15,0.59l0.18,0.3c-0.23,0.23-0.47,0.45-0.72,0.66
											c-0.24,0.2-0.49,0.39-0.78,0.5c-0.28,0.11-0.57,0.15-0.87,0.16c-0.17,0-0.33,0-0.49-0.05c-0.24-0.08-0.45-0.26-0.59-0.48
											s-0.22-0.47-0.27-0.73C182.8,27.87,183.3,27.52,183.64,27.11z"/>
									</g>
								</g>
								<circle class="st1" cx="182.24" cy="29.58" r="0.18"/>
								<circle class="st1" cx="182.24" cy="30.69" r="0.18"/>
								<circle class="st1" cx="182.24" cy="31.79" r="0.18"/>
								<circle class="st1" cx="182.24" cy="32.9" r="0.18"/>
								<g class="st3">
									<path class="st1" d="M185.02,31c-1.29,1.98-3.05,3.65-5.1,4.82c0.98-0.11,1.94-0.41,2.8-0.9
										c-0.94,1.03-1.97,1.98-3.07,2.83c0.21,0.13,0.47,0.04,0.7-0.05c2.4-1,4.38-2.94,5.44-5.31c0.22-0.49,0.4-1.01,0.4-1.55"/>
								</g>
							</g>
							<g class="st3">
								<path class="st1" d="M179.01,27.68c-3.19,1.08-4.04,6.88-3.24,14.46c2.61,1.18,4.4,0.25,4.4,0.25
									c0.56-3.32,0.88-7.28,0.37-10.6C180.31,30.35,179.92,28.9,179.01,27.68"/>
							</g>
							<g>
								<path class="st1" d="M178.82,27.58c-3.19,1.08-4.04,6.88-3.24,14.46c2.61,1.18,4.4,0.25,4.4,0.25
									c0.56-3.32,0.88-7.28,0.37-10.6C180.12,30.25,179.73,28.8,178.82,27.58"/>
							</g>
							<g>
								<path class="st1" d="M178.29,23.26c-0.02-0.11-0.09-0.23-0.2-0.3c-0.12-0.08-0.29-0.12-0.45-0.1
									c-0.17,0.02-0.3,0.11-0.38,0.22c-0.08,0.11-0.11,0.23-0.12,0.35c-0.03,0.29,0.03,0.58,0.18,0.84
									c0.07,0.13,0.17,0.26,0.31,0.35c0.15,0.09,0.35,0.15,0.54,0.12"/>
							</g>
							<g>
								<path class="st1" d="M185.43,23.44c-0.06-0.11,0.03-0.25,0.12-0.33c0.14-0.12,0.3-0.23,0.49-0.24
									c0.24-0.01,0.46,0.13,0.58,0.34c0.12,0.2,0.16,0.45,0.15,0.68c-0.01,0.25-0.07,0.5-0.24,0.68s-0.45,0.27-0.67,0.15"/>
							</g>
							<g>
								<path class="st1" d="M178.73,20.46c-0.3,0.33-0.43,0.78-0.47,1.23c-0.04,0.44-0.01,0.89-0.04,1.34
									c-0.03,0.42-0.12,0.84-0.26,1.23c-0.1,0.29-0.24,0.58-0.2,0.89c0.02,0.19,0.12,0.37,0.23,0.53c0.5,0.69,1.39,1.01,2.24,1.03
									c0.14,0,0.28,0,0.42,0.03c0.16,0.04,0.31,0.14,0.46,0.22c0.62,0.33,1.4,0.42,2.02,0.09c0.18-0.09,0.33-0.21,0.51-0.3
									c0.18-0.08,0.37-0.12,0.56-0.15c0.35-0.06,0.71-0.12,1.04-0.25c0.33-0.13,0.65-0.35,0.81-0.67c0.19-0.36,0.17-0.8,0.08-1.2
									s-0.25-0.78-0.32-1.19c-0.13-0.77,0.06-1.59-0.22-2.32c-0.23-0.61-0.78-1.06-1.38-1.31c-0.61-0.25-1.27-0.3-1.92-0.31"/>
							</g>
							<g>
								<g>
									<g>
										<path class="st1" d="M181.3,23.34c-0.03-0.19-0.15-0.37-0.32-0.46c-0.18-0.09-0.38-0.08-0.58-0.08s-0.41,0.02-0.61,0.03
											c-0.21,0.01-0.45,0.04-0.61,0.18c-0.17,0.15-0.16,0.42-0.11,0.63c0.05,0.19,0.15,0.37,0.3,0.5
											c0.31,0.27,0.77,0.28,1.16,0.24c0.25-0.03,0.47-0.09,0.61-0.31c0.12-0.19,0.18-0.45,0.16-0.67
											c-0.01-0.12-0.09-0.22-0.22-0.22c-0.11,0-0.24,0.1-0.22,0.22c0.01,0.13-0.02,0.27-0.06,0.37
											c-0.05,0.11-0.1,0.14-0.22,0.16c-0.15,0.03-0.3,0.02-0.45,0.02c-0.12,0-0.25-0.01-0.36-0.07
											c-0.1-0.05-0.17-0.13-0.22-0.24c-0.03-0.06-0.05-0.12-0.05-0.19c0-0.03-0.02-0.11,0-0.13c-0.01,0.02,0.01,0,0.02,0
											c0,0,0.05-0.02,0.07-0.02c0.07-0.02,0.14-0.02,0.21-0.03c0.15-0.01,0.3-0.02,0.46-0.03c0.14-0.01,0.31-0.02,0.44,0
											s0.16,0.08,0.18,0.21c0.02,0.12,0.17,0.18,0.27,0.16C181.27,23.58,181.32,23.46,181.3,23.34z"/>
									</g>
								</g>
								<g>
									<g>
										<path class="st1" d="M183.01,23.59c0.01-0.05,0.02-0.09,0.04-0.13c0.02-0.03,0.04-0.05,0.08-0.06
											c0.1-0.03,0.23-0.02,0.34-0.01c0.15,0,0.31,0.01,0.46,0.02c0.13,0.01,0.26,0.03,0.38,0.06c0.02,0.01,0.02-0.01,0.02,0.03
											c0,0.06-0.01,0.12-0.02,0.18c-0.03,0.11-0.1,0.21-0.19,0.28c-0.08,0.06-0.18,0.08-0.29,0.09c-0.14,0.01-0.29,0.01-0.43,0
											c-0.11-0.01-0.24-0.02-0.29-0.12c-0.06-0.11-0.1-0.27-0.08-0.4c0.01-0.11-0.11-0.21-0.21-0.21c-0.12,0-0.2,0.1-0.21,0.21
											c-0.02,0.2,0.04,0.41,0.12,0.58c0.09,0.18,0.25,0.29,0.45,0.33c0.2,0.04,0.4,0.04,0.6,0.03c0.19-0.01,0.39-0.04,0.55-0.15
											c0.17-0.11,0.29-0.27,0.37-0.45c0.07-0.18,0.11-0.42,0.02-0.6c-0.1-0.19-0.32-0.24-0.52-0.27
											c-0.19-0.02-0.39-0.03-0.59-0.04s-0.42-0.03-0.61,0.03c-0.21,0.07-0.36,0.25-0.39,0.47c-0.02,0.11,0.03,0.23,0.15,0.26
											C182.85,23.77,182.99,23.71,183.01,23.59z"/>
									</g>
								</g>
								<g>
									<g>
										<path class="st1" d="M181.1,23.43c0.15-0.06,0.3-0.1,0.46-0.13c0.02,0,0.04-0.01,0.06-0.01c0.03,0,0.04-0.01,0.01,0
											c0.04,0,0.08-0.01,0.12-0.01c0.09,0,0.17,0,0.26,0c0.02,0,0.04,0,0.06,0.01c0.05,0-0.06-0.01,0,0
											c0.04,0.01,0.08,0.01,0.12,0.02c0.08,0.02,0.16,0.04,0.23,0.07c0.04,0.01,0.08,0.03,0.11,0.04c0.05,0.02-0.06-0.03-0.01,0
											c0.02,0.01,0.04,0.02,0.05,0.03c0.1,0.05,0.19,0.12,0.29,0.14c0.16,0.04,0.36-0.02,0.44-0.18s0.06-0.33-0.06-0.47
											c-0.07-0.09-0.19-0.13-0.29-0.18c-0.11-0.05-0.21-0.09-0.32-0.12c-0.2-0.05-0.42-0.07-0.63-0.06
											c-0.43,0.03-0.81,0.16-1.14,0.44C180.68,23.17,180.88,23.52,181.1,23.43L181.1,23.43z"/>
									</g>
								</g>
							</g>
							<g>
								<g>
									<path class="st1" d="M179.46,20.2c-0.05,0.58-0.31,1.15-0.73,1.56c-0.07,0.07-0.16,0.14-0.26,0.14
										c-0.1-0.01-0.19-0.14-0.11-0.21c-0.04,0.15-0.09,0.29-0.16,0.42c-0.03,0.07-0.09,0.14-0.16,0.12
										c-0.04-0.01-0.06-0.03-0.08-0.06c-0.08-0.11-0.09-0.26-0.09-0.4c-0.01-0.4-0.02-0.81,0.09-1.19
										c0.17-0.57,0.6-1.05,1.15-1.26"/>
								</g>
								<g>
									<path class="st1" d="M179.25,19.85c0.21,0.36,0.33,0.72,0.7,1c0.23,0.18,0.49,0.33,0.77,0.37c0.08,0.01,0.18,0,0.23-0.06
										c0.06-0.08,0.01-0.2-0.06-0.28c-0.07-0.08-0.16-0.15-0.17-0.25c0.53,0.32,1.43,0.26,1.43,0.09c0-0.09-0.91-0.55-1.03-0.75
										c0.54,0.23,1.15,0.14,1.76,0.26c1.07,0.22,2.15,0.69,2.79,1.57c0.15,0.21,0.27,0.43,0.39,0.66
										c0.07-0.28,0.08-0.58,0.01-0.86c0.13-0.05,0.2,0.27,0.33,0.21c0.03-0.01,0.05-0.05,0.06-0.08
										c0.16-0.36,0.18-0.77,0.08-1.15c-0.1-0.38-0.3-0.72-0.56-1.02c-0.67-0.77-1.69-1.19-2.71-1.32
										c-0.32-0.04-0.65-0.05-0.98-0.01c-0.77,0.1-2.14,0.31-2.85,0.82"/>
								</g>
								<g>
									<path class="st1" d="M179.46,20.23c-0.02-0.13-0.01-0.13-0.05-0.26c-0.16,0.47-0.52,1.11-0.84,1.49
										c-0.03,0.03-0.05,0.06-0.09,0.07s-0.09,0-0.1-0.03c-0.01-0.01-0.01-0.03-0.01-0.05c0-0.13-0.01-0.25-0.01-0.38
										c-0.15,0.15-0.19,0.37-0.27,0.57c-0.01,0.02-0.01,0.03-0.03,0.04c-0.13,0.08-0.12-0.32-0.11-0.37
										c0.03-0.17,0.07-0.34,0.1-0.51c0.09-0.39,0.67-1.41,1.12-1.58c-0.16-0.04-0.32,0.06-0.45,0.16
										c-0.63,0.51-0.93,1.34-0.95,2.15c0,0.18,0,0.38,0.09,0.54c0.09,0.16,0.24,0.24,0.35,0.04c0.06-0.11,0.1-0.23,0.14-0.35
										c0.01,0.06,0.07,0.13,0.14,0.14c0.1,0.01,0.19-0.07,0.26-0.14C179.06,21.44,179.39,20.95,179.46,20.23z"/>
								</g>
								<g>
									<path class="st1" d="M186.61,20.58c-0.03-0.17-0.08-0.32-0.15-0.47c-0.14-0.28-0.35-0.53-0.58-0.74
										c-0.26-0.24-0.57-0.46-0.92-0.54c0.37,0.29,0.69,0.65,0.95,1.05c0.11,0.18,0.27,0.39,0.3,0.61c0.03,0.2,0.05,0.45,0,0.66
										c-0.3-0.55-0.63-0.8-1.03-0.92c0.23,0.17,0.45,0.59,0.57,0.85c-0.33-0.4-1.2-0.84-1.71-0.96s-0.94-0.15-1.46-0.16
										c-0.44-0.01-1.28,0-2.02-0.42c0.08,0.3,0.22,0.54,0.57,0.75c0.15,0.09,0.31,0.2,0.41,0.34c-0.55-0.05-0.77-0.12-1.26-0.38
										c0.08,0.18,0.2,0.34,0.33,0.49c0.06,0.06,0.12,0.14,0.1,0.22c-0.16-0.01-0.3-0.09-0.43-0.18
										c-0.36-0.24-0.57-0.51-0.87-0.82h-0.03c0,0.31,0.22,0.62,0.55,0.88c0.23,0.18,0.49,0.33,0.77,0.37
										c0.08,0.01,0.18,0,0.23-0.06c0.06-0.08,0.01-0.2-0.06-0.28c-0.07-0.08-0.16-0.15-0.17-0.25c0.53,0.32,1.43,0.26,1.43,0.09
										c0-0.09-0.91-0.55-1.03-0.75c0.61,0.28,1.22,0.16,1.76,0.26c1.07,0.22,2.15,0.69,2.79,1.57c0.05,0.07,0.1,0.15,0.14,0.22
										c0.09,0.13,0.2,0.42,0.27,0.56c0.11-0.34,0.05-0.71-0.02-0.98c0.13-0.05,0.2,0.27,0.33,0.21c0.03-0.01,0.05-0.05,0.06-0.08
										C186.62,21.4,186.67,20.97,186.61,20.58z"/>
								</g>
							</g>
							<g>
								<g>
									<path class="st1" d="M181.26,25.39c-0.04,0-0.07,0.04-0.07,0.08c0.02,0.23,0.16,0.46,0.38,0.59
										c0.4,0.24,0.94,0.15,1.19-0.16c0.08-0.09,0.13-0.3,0.15-0.45c0.01-0.04-0.03-0.08-0.07-0.08
										C182.31,25.38,181.79,25.39,181.26,25.39z"/>
								</g>
							</g>
							<g>
								<g>
									<path class="st1" d="M180.86,24.2c-0.02,0.03-0.05,0.07-0.08,0.13c-0.01,0.01-0.04,0.07-0.02,0.03
										c-0.03,0.04-0.05,0.07-0.07,0.11c-0.01,0.02-0.03,0.05-0.04,0.07c0,0.01-0.03,0.04-0.01,0.01s-0.02,0.02-0.02,0.02
										c-0.04,0.04-0.08,0.08-0.12,0.12s-0.08,0.07-0.12,0.1c-0.01,0.01-0.03,0.02-0.04,0.03c0.01-0.01,0.04-0.03,0,0
										c-0.03,0.02-0.06,0.04-0.09,0.06c-0.1,0.07-0.21,0.14-0.31,0.21c-0.07,0.05-0.14,0.11-0.19,0.18
										c-0.06,0.09-0.05,0.27,0.06,0.33c0.02,0.01,0.04,0.02,0.06,0.02c-0.01,0-0.01,0-0.02-0.01c-0.04-0.02-0.02-0.01,0.04,0.02
										c0.07,0.02,0.14,0,0.2-0.03s0.11-0.07,0.17-0.11c0.21-0.15,0.45-0.28,0.61-0.48c0.09-0.11,0.17-0.23,0.23-0.36
										c0.06-0.14,0.06-0.31-0.02-0.45C181.03,24.11,180.91,24.13,180.86,24.2L180.86,24.2z"/>
								</g>
							</g>
							<g>
								<g>
									<path class="st1" d="M182.92,24.69c0.05,0.12,0.17,0.2,0.28,0.26c0.02,0.01,0.05,0.03,0.07,0.04c-0.04-0.03,0,0,0.01,0.01
										c0.03,0.02-0.01-0.02,0,0c0.01,0.04,0.04,0.07,0.06,0.1c0.03,0.04,0.06,0.08,0.1,0.12c0.12,0.14,0.27,0.23,0.44,0.29
										c0.09,0.03,0.18,0.04,0.27,0.04c0.06,0,0.12,0,0.18-0.03c0.05-0.03,0.08-0.07,0.11-0.11c0.03-0.05,0.03-0.12,0-0.17
										c-0.05-0.09-0.13-0.13-0.23-0.15c-0.07-0.02-0.14-0.03-0.2-0.05c-0.03-0.01-0.07-0.02-0.1-0.03
										c0.05,0.02-0.01-0.01-0.02-0.01c-0.01-0.01-0.02-0.01-0.04-0.02c-0.02-0.01-0.04-0.02-0.05-0.03
										c0.02,0.01,0.01,0-0.01-0.01c-0.03-0.03-0.06-0.06-0.09-0.09c-0.05-0.06-0.1-0.12-0.16-0.16
										c-0.05-0.04-0.11-0.06-0.17-0.08c-0.03-0.01-0.05-0.02-0.08-0.02c-0.02,0-0.08-0.01-0.04-0.01c-0.01,0-0.03,0-0.04-0.01
										c-0.05-0.01-0.09-0.02-0.13-0.05c-0.04-0.03-0.1-0.02-0.14,0.02C182.9,24.59,182.9,24.65,182.92,24.69L182.92,24.69z"/>
								</g>
							</g>
							<g>
								<path class="st1" d="M182.67,26.62c-0.29,0.06-0.59,0.08-0.88,0.06c-0.03,0-0.06,0.01-0.06,0.03l0.01,0.01
									c0.15,0.14,0.4,0.21,0.62,0.16C182.51,26.85,182.71,26.76,182.67,26.62"/>
							</g>
							<g>
								<g>
									<path class="st1" d="M184.88,21.67c-0.05-0.05-0.11-0.08-0.17-0.1c-0.12-0.05-0.24-0.14-0.36-0.18
										c-0.25-0.12-0.54-0.11-0.79,0.03c-0.04,0.02-0.09,0.06-0.1,0.11c-0.02,0.09,0.06,0.16,0.14,0.18
										c0.14,0.04,0.3-0.01,0.45,0.03c0.07,0.02,0.13,0.06,0.19,0.09c0.15,0.07,0.31,0.12,0.48,0.12c0.07,0,0.16-0.01,0.2-0.08
										C184.95,21.81,184.92,21.72,184.88,21.67z"/>
								</g>
								<g>
									<path class="st1" d="M184.84,21.6c-0.05-0.05-0.11-0.07-0.17-0.09c-0.12-0.04-0.24-0.12-0.36-0.16
										c-0.25-0.1-0.54-0.09-0.79,0.03c-0.04,0.02-0.09,0.05-0.1,0.1c-0.02,0.08,0.06,0.14,0.14,0.16
										c0.14,0.04,0.3-0.01,0.45,0.03c0.07,0.02,0.13,0.05,0.19,0.08c0.15,0.07,0.31,0.1,0.48,0.11c0.07,0,0.16-0.01,0.2-0.07
										C184.91,21.72,184.89,21.64,184.84,21.6z"/>
								</g>
								<g>
									<path class="st1" d="M184.74,21.53c0.01,0.02,0.02,0.04,0.03,0.06c0.02,0.04,0.03,0.09,0.01,0.13
										c-0.02,0.04-0.07,0.04-0.11,0.03c-0.19-0.02-0.37-0.12-0.55-0.18c-0.05-0.01-0.1-0.02-0.15-0.03
										c-0.06,0-0.12,0.01-0.18,0.02c-0.11,0.01-0.22-0.02-0.32-0.07c-0.01-0.01-0.03-0.01-0.04-0.02
										c-0.01,0.07,0.06,0.13,0.14,0.15c0.14,0.04,0.3-0.01,0.45,0.03c0.07,0.02,0.13,0.05,0.19,0.08
										c0.15,0.07,0.31,0.1,0.48,0.11c0.07,0,0.16-0.01,0.2-0.07c0.03-0.06,0.01-0.13-0.04-0.18
										C184.81,21.57,184.78,21.55,184.74,21.53z"/>
								</g>
							</g>
							<g>
								<path class="st1" d="M175.98,34.06c0.03,2.62,0.29,5.56,2.22,7.68c0.37,0.41,0.88,0.67,1.44,0.72l0.1,0.01l0.54-2.27
									c-0.26-1.41-0.52-1.96-0.76-3.94c-0.2-1.66-0.22-3.35-0.2-5.02"/>
							</g>
							<g>
								<g>
									<path class="st1" d="M179.11,21.67c0.05-0.05,0.11-0.08,0.17-0.1c0.12-0.05,0.24-0.14,0.36-0.18
										c0.25-0.12,0.54-0.11,0.79,0.03c0.04,0.02,0.09,0.06,0.1,0.11c0.02,0.09-0.06,0.16-0.14,0.18
										c-0.14,0.04-0.3-0.01-0.45,0.03c-0.07,0.02-0.13,0.06-0.19,0.09c-0.15,0.07-0.31,0.12-0.48,0.12
										c-0.07,0-0.16-0.01-0.2-0.08C179.04,21.81,179.07,21.72,179.11,21.67z"/>
								</g>
								<g>
									<path class="st1" d="M179.15,21.6c0.05-0.05,0.11-0.07,0.17-0.09c0.12-0.04,0.24-0.12,0.36-0.16
										c0.25-0.1,0.54-0.09,0.79,0.03c0.04,0.02,0.09,0.05,0.1,0.1c0.02,0.08-0.06,0.14-0.14,0.16c-0.14,0.04-0.3-0.01-0.45,0.03
										c-0.07,0.02-0.13,0.05-0.19,0.08c-0.15,0.07-0.31,0.1-0.48,0.11c-0.07,0-0.16-0.01-0.2-0.07
										C179.08,21.72,179.1,21.64,179.15,21.6z"/>
								</g>
								<g>
									<path class="st1" d="M179.25,21.53c-0.01,0.02-0.02,0.04-0.03,0.06c-0.02,0.04-0.03,0.09-0.01,0.13
										c0.02,0.04,0.07,0.04,0.11,0.03c0.19-0.02,0.37-0.12,0.55-0.18c0.05-0.01,0.1-0.02,0.15-0.03c0.06,0,0.12,0.01,0.18,0.02
										c0.11,0.01,0.22-0.02,0.32-0.07c0.01-0.01,0.03-0.01,0.04-0.02c0.01,0.07-0.06,0.13-0.14,0.15
										c-0.14,0.04-0.3-0.01-0.45,0.03c-0.07,0.02-0.13,0.05-0.19,0.08c-0.15,0.07-0.31,0.1-0.48,0.11c-0.07,0-0.16-0.01-0.2-0.07
										c-0.03-0.06-0.01-0.13,0.04-0.18C179.18,21.57,179.21,21.55,179.25,21.53z"/>
								</g>
							</g>
							<g class="st3">
								<path class="st1" d="M189.44,42.2c-2.61,1.21-5.36,0.42-5.36,0.42c-0.56-3.39-0.88-7.42-0.37-10.82
									c0.22-1.46,0.61-2.94,1.52-4.19c0.69,0.16,1.26,0.52,1.71,1.04c0.04,0.04,0.07,0.08,0.11,0.13s0.09,0.11,0.13,0.17
									c0.46,0.62,0.8,1.42,1.06,2.33c0.08,0.26,0.14,0.54,0.2,0.82C189.11,35.07,189.1,38.96,189.44,42.2z"/>
							</g>
							<g>
								<path class="st1" d="M189.74,42.16c-2.61,1.21-5.36,0.42-5.36,0.42c-0.56-3.39-0.88-7.42-0.37-10.82
									c0.22-1.46,0.61-2.94,1.52-4.19c0.69,0.16,1.26,0.52,1.71,1.04c0.04,0.04,0.07,0.08,0.11,0.13s0.09,0.11,0.13,0.17
									c0.46,0.62,0.8,1.42,1.06,2.33c0.08,0.26,0.14,0.54,0.2,0.82C189.41,35.03,189.4,38.92,189.74,42.16z"/>
							</g>
							<g class="st9">
								<path class="st1" d="M188.76,32.07c-0.06-0.28-0.13-0.56-0.2-0.82c-0.26-0.91-0.6-1.71-1.06-2.33
									c-0.05-0.06-0.09-0.12-0.13-0.17c-0.03-0.04-0.07-0.09-0.11-0.13c-0.24-0.27-0.51-0.5-0.81-0.67
									c0.01,0.01,0.02,0.02,0.03,0.03c0.04,0.04,0.07,0.08,0.11,0.13s0.09,0.11,0.13,0.17c0.46,0.62,0.8,1.42,1.06,2.33
									c0.08,0.26,0.14,0.54,0.2,0.82c0.43,1.96,0.57,4.33,0.72,6.65c0.15,2.42-1.97,4.38-4.37,4.01c-0.01,0-0.02,0-0.03,0
									c0.03,0.17,0.05,0.33,0.08,0.5c0,0,2.75,0.79,5.36-0.42C189.4,38.92,189.41,35.03,188.76,32.07z"/>
							</g>
							<path class="st1" d="M180.65,23.25c0,0.23-0.12,0.42-0.28,0.42s-0.28-0.19-0.28-0.42s0.12-0.42,0.28-0.42
								S180.65,23.01,180.65,23.25z"/>
							<path class="st1" d="M183.37,23.26c0.02,0.23,0.17,0.41,0.33,0.4s0.28-0.22,0.25-0.45c-0.02-0.23-0.17-0.41-0.33-0.4
								S183.35,23.03,183.37,23.26z"/>
							<g>
								<path class="st1" d="M182.05,23.24c0.22,0.13,0.31,0.34,0.33,0.54c0.03,0.21-0.04,0.39-0.12,0.56
									c-0.05,0.06-0.14,0.21-0.09,0.08c0-0.07-0.03-0.14-0.1-0.15c-0.02,0-0.07-0.02-0.07,0.02l0.06,0.14
									c0.02,0.1,0.07,0.23,0,0.36c-0.13-0.02-0.2,0.02-0.3,0.03l-0.12,0.01c-0.06,0-0.16-0.07-0.22-0.13
									c-0.15-0.14-0.19-0.37-0.15-0.58c0.1-0.27,0.12-0.23,0.14-0.3C181.53,23.62,181.67,23.55,182.05,23.24z"/>
							</g>
							<ellipse class="st1" cx="184.79" cy="24.78" rx="0.55" ry="0.28"/>
							<ellipse class="st1" cx="179.46" cy="24.76" rx="0.55" ry="0.28"/>
							<g>
								<path class="st1" d="M188.18,34.18c-0.16,2.89-0.63,6.69-3.8,8.41l-0.11-0.54l-0.31-2.66c0.76-1.29,0.64-1.25,0.96-3.22
									c0.27-1.65,0.01-3.1,0.07-4.77s0.38-2.34,0.8-3.24L188.18,34.18z"/>
							</g>
							<g>
								<path class="st1" d="M183.67,40.33c-0.1,0.19-0.21,0.38-0.31,0.57c-0.11,0.19-0.22,0.39-0.39,0.54
									c-0.17,0.16-0.39,0.26-0.6,0.35c-0.59,0.27-1.21,0.54-1.65,1.03c-0.06,0.07-0.12,0.15-0.14,0.24
									c-0.01,0.09,0.05,0.2,0.14,0.21c0.05,0.01,0.1-0.02,0.15-0.04c0.24-0.11,0.47-0.23,0.71-0.34
									c-0.08,0.22-0.18,0.33-0.33,0.48c-0.16,0.14-0.31,0.32-0.47,0.47c-0.07,0.06-0.14,0.16-0.1,0.25
									c0.05,0.13,0.23,0.08,0.33,0.06c-0.02,0.03-0.04,0.05-0.07,0.08c-0.03,0.03-0.06,0.06-0.08,0.1
									c-0.03,0.05-0.05,0.12-0.04,0.18c0,0.01,0.01,0.03,0.02,0.04c0.02,0.03,0.05,0.03,0.09,0.03c0.06,0,0.11-0.03,0.16-0.05
									c0.04-0.02,0.09-0.03,0.13-0.05c0.09-0.05,0.18-0.11,0.26-0.18c0.01-0.01,0.01-0.01,0.02-0.02v0.02
									c-0.06,0.06-0.25,0.17-0.14,0.27c0.07,0.07,0.18,0.03,0.25-0.01c0.06-0.03,0.11-0.06,0.16-0.1
									c0.05-0.03,0.18-0.14,0.18-0.14s0.05,0.05,0.09,0.05c0.12,0.01,0.22-0.06,0.31-0.13c0.4-0.29,0.81-0.59,1.07-1
									c0.17-0.27,0.27-0.58,0.47-0.83c0.14-0.17,0.31-0.3,0.48-0.44c0.39-0.35,0.72-0.76,1.03-1.18c0.05-0.07,0.11-0.14,0.16-0.22
									L183.67,40.33z"/>
								<g>
									<path class="st1" d="M181.87,44.36c0.04-0.24,0.16-0.36,0.28-0.49c0.15-0.1,0.28-0.2,0.54-0.22
										c-0.02,0.22-0.15,0.35-0.28,0.49C182.25,44.24,182.1,44.36,181.87,44.36z"/>
								</g>
								<g>
									<path class="st1" d="M181.51,44.27c0.07-0.26,0.22-0.42,0.37-0.58c0.18-0.14,0.34-0.27,0.59-0.34
										c-0.02,0.28-0.19,0.45-0.34,0.62C181.95,44.09,181.78,44.23,181.51,44.27z"/>
								</g>
								<g>
									<path class="st1" d="M180.98,44.16c0.1-0.26,0.26-0.41,0.42-0.57c0.18-0.14,0.34-0.26,0.58-0.38
										c0.02,0.29-0.17,0.49-0.33,0.66C181.45,44,181.26,44.15,180.98,44.16z"/>
								</g>
							</g>
							<g>
								<path class="st1" d="M188.18,34.03c-0.16,2.89-0.97,5.97-3.59,8l-1.32-1.17c0.75-1.31,1.08-2.51,1.4-4.48
									c0.27-1.65-0.1-3.84-0.05-5.51s0.56-2.27,0.98-3.18L188.18,34.03z"/>
							</g>
							<g>
								<path class="st1" d="M184.69,41.9c-0.51-0.41-0.69-1.11-0.46-1.72c0.38-1,0.42-2.34,0.59-3.82
									c0.19-1.66,0.11-1.62-0.16,0.03c-0.32,1.97-0.64,3.16-1.4,4.48l1.32,1.17c0.04-0.03,0.09-0.07,0.13-0.1L184.69,41.9z"/>
							</g>
							<g>
								<path class="st1" d="M180.01,39.99c0.08,0.2,0.16,0.41,0.24,0.61c0.08,0.21,0.17,0.41,0.32,0.58
									c0.15,0.18,0.35,0.3,0.55,0.43c0.56,0.34,1.14,0.69,1.51,1.22c0.05,0.08,0.11,0.16,0.11,0.26c0,0.09-0.07,0.2-0.16,0.2
									c-0.05,0-0.1-0.03-0.15-0.06c-0.22-0.14-0.44-0.29-0.66-0.43c0.05,0.23,0.13,0.35,0.27,0.52c0.14,0.16,0.27,0.36,0.41,0.52
									c0.06,0.07,0.11,0.17,0.07,0.26c-0.07,0.12-0.24,0.05-0.34,0.02c0.02,0.03,0.04,0.06,0.06,0.09
									c0.03,0.03,0.05,0.07,0.07,0.11c0.03,0.06,0.04,0.13,0.01,0.19c0,0.01-0.01,0.03-0.02,0.04c-0.02,0.02-0.06,0.03-0.09,0.02
									c-0.06-0.01-0.1-0.04-0.16-0.07c-0.04-0.02-0.08-0.04-0.12-0.07c-0.08-0.06-0.16-0.13-0.23-0.21
									c-0.01-0.01-0.01-0.01-0.01-0.02v0.02c0.06,0.06,0.22,0.2,0.1,0.29c-0.08,0.06-0.18,0.01-0.25-0.04
									c-0.05-0.03-0.1-0.07-0.15-0.12c-0.04-0.04-0.16-0.17-0.16-0.17s-0.05,0.04-0.09,0.04c-0.12,0-0.21-0.09-0.3-0.16
									c-0.36-0.34-0.73-0.68-0.93-1.13c-0.13-0.29-0.2-0.61-0.37-0.88c-0.11-0.18-0.27-0.34-0.42-0.5
									c-0.35-0.39-0.62-0.85-0.88-1.3c-0.05-0.08-0.09-0.16-0.14-0.24h1.91V39.99z"/>
								<g>
									<path class="st1" d="M181.3,44.21c-0.23-0.03-0.36-0.16-0.5-0.28c-0.11-0.15-0.22-0.3-0.22-0.52
										c0.25,0.05,0.37,0.17,0.5,0.28C181.18,43.84,181.29,43.97,181.3,44.21z"/>
								</g>
								<g>
									<path class="st1" d="M181.67,44.16c-0.26-0.06-0.42-0.23-0.58-0.39c-0.12-0.19-0.28-0.37-0.26-0.65
										c0.24,0.11,0.39,0.26,0.54,0.42C181.5,43.72,181.63,43.9,181.67,44.16z"/>
								</g>
								<g>
									<path class="st1" d="M182.2,44.12c-0.27-0.05-0.45-0.21-0.62-0.38c-0.13-0.19-0.3-0.41-0.25-0.69
										c0.22,0.15,0.36,0.29,0.53,0.45C181.99,43.69,182.14,43.86,182.2,44.12z"/>
								</g>
							</g>
							<g>
								<path class="st1" d="M175.98,33.89c0.03,2.89,0.71,6,3.24,8.15l1.37-1.11c-0.69-1.34-0.97-2.55-1.2-4.53
									c-0.2-1.66,0.26-3.83,0.28-5.5c0.02-1.67-0.38-2.5-0.84-3.21"/>
							</g>
						</g>
						<g>
							<path class="st6" d="M188.76,32.07c-0.52-0.2-1.25-0.72-1.31-1.11c-0.42-0.05-0.51-0.42-0.45-0.62
								c-0.23,0.05-0.36-0.15-0.38-0.24c-0.04-0.19,0.05-0.27,0.07-0.29c-0.02,0.01-0.13,0.06-0.25-0.07l0,0
								c-0.12-0.14-0.1-0.35,0.02-0.48c0.17-0.19,0.48-0.5,0.79-0.64c0.04,0.04,0.07,0.08,0.11,0.13s0.09,0.11,0.13,0.17
								c0.46,0.62,0.8,1.42,1.06,2.33C188.63,31.51,188.69,31.78,188.76,32.07z"/>
							<path class="st1" d="M188.53,30.87c-0.36,0.12-1.05,0.26-1.13-0.28c-0.42-0.05-0.51-0.42-0.45-0.62
								c-0.23,0.05-0.36-0.15-0.38-0.24c-0.04-0.21,0.07-0.29,0.07-0.29s-0.13,0.07-0.25-0.06l0,0c-0.12-0.14-0.11-0.35,0.02-0.48
								c0.29-0.33,1.03-1.04,1.45-0.56c0.16,0.23,0.16,0.23,0.16,0.23s0.58,0.03,0.5,0.51c0.29,0.29,0.37,0.55,0.19,0.87
								c0.2,0.13,0.37,0.31,0.24,0.58C188.86,30.7,188.7,30.82,188.53,30.87z"/>
							<g>
								<path class="st1" d="M186.64,29.44c0.12-0.29,0.31-0.46,0.51-0.59c0.21-0.13,0.45-0.2,0.75-0.2
									c-0.02,0.17-0.12,0.28-0.2,0.38c-0.08,0.11-0.19,0.18-0.29,0.25C187.19,29.4,186.96,29.49,186.64,29.44z"/>
							</g>
							<g>
								<path class="st1" d="M186.95,29.97c0.18-0.29,0.41-0.46,0.65-0.59c0.25-0.13,0.5-0.2,0.84-0.22
									c-0.05,0.17-0.15,0.3-0.25,0.4c-0.1,0.11-0.23,0.19-0.36,0.26C187.57,29.95,187.29,30.03,186.95,29.97z"/>
							</g>
							<g>
								<path class="st1" d="M187.4,30.59c0.19-0.22,0.34-0.33,0.53-0.43c0.19-0.08,0.38-0.15,0.68-0.13
									c-0.06,0.29-0.25,0.47-0.46,0.58C187.92,30.7,187.65,30.75,187.4,30.59z"/>
							</g>
						</g>
					</g>
				</g>
			</g>
		</g>
	</g>
</g>
</svg>
